<svg id="main_meter" data-name="main meter" xmlns="http://www.w3.org/2000/svg" viewBox="0 0 458.35 282.42"><defs><style>.cls-1,.cls-6{fill:#e5e5e5;fill-rule:evenodd}.cls-6{fill:#4c4c4c}</style></defs><path class="cls-1" d="M566.93 402.94c126.55 0 229.17 102.63 229.17 229.18H652.64a85.71 85.71 0 0 0-171.42 0H337.75c0-126.55 102.63-229.18 229.18-229.18z" transform="translate(-337.75 -402.94)"/><path d="M504.83 573a85.44 85.44 0 0 0-23.61 59.08H375.39A190.91 190.91 0 0 1 430 498.21L504.83 573z" transform="translate(-337.75 -402.94)" fill="#89ae2f" fill-rule="evenodd"/><path d="M564.79 546.43A85.46 85.46 0 0 0 507.85 570L433 495.19a190.92 190.92 0 0 1 131.77-54.58v105.82z" transform="translate(-337.75 -402.94)" fill="#aed258" fill-rule="evenodd"/><path d="M703.86 498.21a190.91 190.91 0 0 1 54.61 133.91H652.64A85.44 85.44 0 0 0 629 573l74.83-74.83z" transform="translate(-337.75 -402.94)" fill="#d62828" fill-rule="evenodd"/><path d="M569.06 440.61a190.92 190.92 0 0 1 131.78 54.58L626 570a85.46 85.46 0 0 0-57-23.59v-105.8z" transform="translate(-337.75 -402.94)" fill="#f77f00" fill-rule="evenodd"/><path class="cls-1" d="M566.93 685.36a53.58 53.58 0 1 1 53.58-53.58 53.58 53.58 0 0 1-53.58 53.58z" transform="translate(-337.75 -402.94)"/><path class="cls-6" d="M557.84 653.72a23.74 23.74 0 1 1 31-12.84 23.75 23.75 0 0 1-31 12.84z" transform="translate(-337.75 -402.94)"/><path class="cls-6" d="M618.52 507.32a5.91 5.91 0 1 1 7.72-3.2 5.92 5.92 0 0 1-7.72 3.2z" transform="translate(-337.75 -402.94)"/><path class="cls-6" d="M277.56 96.66l10.92 4.52-36.49 134.24-43.59-18.07 69.16-120.69z"/><path class="cls-1" d="M563.07 641.1a10.09 10.09 0 1 1 13.17-5.45 10.09 10.09 0 0 1-13.17 5.45z" transform="translate(-337.75 -402.94)"/></svg>