<svg id="Layer_1" data-name="Layer 1" xmlns="http://www.w3.org/2000/svg" viewBox="0 0 458.35 328.56"><defs><style>.cls-1{fill:#e5e5e5;fill-rule:evenodd}</style></defs><path class="cls-1" d="M306.42 231.45c126.54 0 229.17 102.62 229.17 229.17H392.13a85.72 85.72 0 0 0-171.43 0H77.24c0-126.55 102.63-229.17 229.18-229.17z" transform="translate(-77.24 -231.45)"/><path d="M244.32 401.55a85.42 85.42 0 0 0-23.62 59.07H114.87a190.91 190.91 0 0 1 54.62-133.9l74.83 74.83z" transform="translate(-77.24 -231.45)" fill="#8aaf3f" fill-rule="evenodd"/><path d="M304.28 374.94a85.39 85.39 0 0 0-56.94 23.59l-74.83-74.83a190.86 190.86 0 0 1 131.77-54.59v105.83z" transform="translate(-77.24 -231.45)" fill="#aed25a" fill-rule="evenodd"/><path d="M443.34 326.72A190.89 190.89 0 0 1 498 460.62H392.13a85.38 85.38 0 0 0-23.62-59.07l74.83-74.83z" transform="translate(-77.24 -231.45)" fill="#d62b28" fill-rule="evenodd"/><path d="M308.55 269.11a190.86 190.86 0 0 1 131.77 54.59l-74.83 74.83a85.39 85.39 0 0 0-56.94-23.59V269.11z" transform="translate(-77.24 -231.45)" fill="#f58020" fill-rule="evenodd"/><path class="cls-1" d="M306.42 560a99.39 99.39 0 1 1 99.38-99.39A99.4 99.4 0 0 1 306.42 560z" transform="translate(-77.24 -231.45)"/></svg>