<svg id="Layer_1" data-name="Layer 1" xmlns="http://www.w3.org/2000/svg" viewBox="0 0 123.96 265.85"><defs><style>.cls-2{fill-rule:evenodd;fill:#0db2e2}</style></defs><path class="cls-2" d="M187.59 242.72a23.74 23.74 0 1 1 31-12.84 23.75 23.75 0 0 1-31 12.84z" transform="translate(-132.48 -84.95)"/><path class="cls-2" d="M248.27 96.32a5.91 5.91 0 1 1 7.73-3.19 5.92 5.92 0 0 1-7.72 3.19z" transform="translate(-132.48 -84.95)"/><path class="cls-2" d="M112.59 3.65l10.92 4.53-36.49 134.23-43.6-18.06 69.17-120.7z"/><path d="M192.82 229.36a9.57 9.57 0 0 1-5.46-12.67 10.24 10.24 0 0 1 13.18-5.25 9.57 9.57 0 0 1 5.46 12.68 10.22 10.22 0 0 1-13.17 5.24z" transform="translate(-132.48 -84.95)" fill="#e4e4e4" fill-rule="evenodd"/></svg>