<svg data-name="Layer 1" xmlns="http://www.w3.org/2000/svg" viewBox="0 0 244.32 122.16"><path d="M122.16 0a122.17 122.17 0 0 1 122.15 122.16h-76.47a45.69 45.69 0 1 0-91.37 0H0A122.17 122.17 0 0 1 122.16 0z" fill-rule="evenodd" fill="#e5e5e5"/><path d="M89.06 90.67a45.51 45.51 0 0 0-12.58 31.49H20.06a101.75 101.75 0 0 1 29.11-71.38l39.89 39.89z" fill="#8aaf3f" fill-rule="evenodd"/><path d="M121.02 76.48a45.51 45.51 0 0 0-30.35 12.58L50.78 49.17a101.76 101.76 0 0 1 70.24-29.1v56.41z" fill="#aed25a" fill-rule="evenodd"/><path d="M195.14 50.78a101.76 101.76 0 0 1 29.12 71.38h-56.42a45.51 45.51 0 0 0-12.58-31.49l39.88-39.89z" fill="#d62b28" fill-rule="evenodd"/><path d="M123.29 20.07a101.74 101.74 0 0 1 70.24 29.1l-39.88 39.89a45.54 45.54 0 0 0-30.36-12.58V20.07z" fill="#f58020" fill-rule="evenodd"/></svg>