<svg width="364" height="350" viewBox="0 0 364 350" fill="none" xmlns="http://www.w3.org/2000/svg">
<g filter="url(#filter0_d_634_23122)">
<rect width="360" height="346" transform="translate(2)" fill="url(#paint0_linear_634_23122)"/>
<path d="M19.848 45V27.84H25.776C29.952 27.84 32.328 29.688 32.328 33.312V33.408C32.328 37.032 29.808 38.76 25.896 38.76H23.712V45H19.848ZM23.712 36.048H25.68C27.576 36.048 28.584 35.136 28.584 33.432V33.336C28.584 31.512 27.528 30.792 25.68 30.792H23.712V36.048ZM37.7754 45.264C35.3274 45.264 33.5034 43.824 33.5034 40.536V32.448H36.9594V40.056C36.9594 41.76 37.6554 42.576 39.1434 42.576C40.6074 42.576 41.7594 41.664 41.7594 39.816V32.448H45.2154V45H41.7594V43.032C41.1114 44.304 39.8394 45.264 37.7754 45.264ZM47.3347 45V32.448H50.8148V34.848C51.6068 33.168 52.8308 32.28 54.8708 32.256V35.496C52.3028 35.472 50.8148 36.312 50.8148 38.712V45H47.3347ZM56.1951 49.272V32.448H59.6751V34.416C60.3711 33.216 61.8351 32.16 63.6831 32.16C66.7551 32.16 69.1551 34.44 69.1551 38.592V38.784C69.1551 42.936 66.8031 45.264 63.6831 45.264C61.7391 45.264 60.3231 44.304 59.6751 43.08V49.272H56.1951ZM62.6511 42.552C64.5711 42.552 65.6271 41.256 65.6271 38.808V38.616C65.6271 36.072 64.3791 34.824 62.6271 34.824C60.8031 34.824 59.5551 36.096 59.5551 38.616V38.808C59.5551 41.328 60.7551 42.552 62.6511 42.552ZM70.6123 45V26.76H74.0683V45H70.6123ZM82.0669 45.264C78.2749 45.264 75.5149 42.888 75.5149 38.88V38.688C75.5149 34.728 78.3229 32.16 81.9709 32.16C85.2109 32.16 88.0909 34.056 88.0909 38.544V39.504H79.0429C79.1389 41.592 80.2669 42.792 82.1629 42.792C83.7709 42.792 84.5629 42.096 84.7789 41.04H88.0669C87.6589 43.752 85.4989 45.264 82.0669 45.264ZM79.0909 37.368H84.7069C84.5869 35.472 83.6269 34.56 81.9709 34.56C80.4109 34.56 79.3549 35.592 79.0909 37.368Z" fill="#9A83A8"/>
<circle cx="182" cy="177" r="102" fill="#9780A4"/>
<circle cx="178.05" cy="228" r="28" fill="white" stroke="#A581B8" stroke-width="2"/>
<path d="M174.05 181C174.05 196.48 161.721 209 146.55 209C131.378 209 119.05 196.48 119.05 181C119.05 165.52 131.378 153 146.55 153C161.721 153 174.05 165.52 174.05 181Z" fill="white" stroke="#A581B8" stroke-width="2"/>
<circle cx="144.05" cy="201" r="20" fill="white" stroke="#A581B8" stroke-width="2"/>
<circle cx="144.05" cy="227" r="20" fill="white" stroke="#A581B8" stroke-width="2"/>
<path d="M262.05 176C262.05 188.171 252.403 198 240.55 198C228.696 198 219.05 188.171 219.05 176C219.05 163.829 228.696 154 240.55 154C252.403 154 262.05 163.829 262.05 176Z" fill="white" stroke="#A581B8" stroke-width="2"/>
<circle cx="216.55" cy="197.5" r="31.5" fill="white" stroke="#A581B8" stroke-width="2"/>
<circle cx="174.55" cy="193.5" r="27.5" fill="white" stroke="#A581B8" stroke-width="2"/>
<circle cx="154.55" cy="141.5" r="27.5" fill="white" stroke="#A581B8" stroke-width="2"/>
<path d="M206.05 126.5C206.05 141.672 193.53 154 178.05 154C162.569 154 150.05 141.672 150.05 126.5C150.05 111.328 162.569 99 178.05 99C193.53 99 206.05 111.328 206.05 126.5Z" fill="white" stroke="#A581B8" stroke-width="2"/>
<path d="M248.05 144C248.05 159.48 235.721 172 220.55 172C205.378 172 193.05 159.48 193.05 144C193.05 128.52 205.378 116 220.55 116C235.721 116 248.05 128.52 248.05 144Z" fill="white" stroke="#A581B8" stroke-width="2"/>
<path d="M219.05 156.5C219.05 168.907 208.772 179 196.05 179C183.327 179 173.05 168.907 173.05 156.5C173.05 144.093 183.327 134 196.05 134C208.772 134 219.05 144.093 219.05 156.5Z" fill="white" stroke="#A581B8" stroke-width="2"/>
<circle cx="207.05" cy="128" r="23" fill="white" stroke="#A581B8" stroke-width="2"/>
<circle cx="131.05" cy="150" r="23" fill="white" stroke="#A581B8" stroke-width="2"/>
<path d="M191.05 136C191.05 154.212 176.065 169 157.55 169C139.034 169 124.05 154.212 124.05 136C124.05 117.788 139.034 103 157.55 103C176.065 103 191.05 117.788 191.05 136Z" fill="white" stroke="#A581B8" stroke-width="2"/>
<circle cx="130.55" cy="177.5" r="27.5" fill="white" stroke="#A581B8" stroke-width="2"/>
<circle cx="206.05" cy="224" r="28" fill="white" stroke="#A581B8" stroke-width="2"/>
<path d="M214.897 318V315.728H209.281V314.784L214.225 306.56H217.409V313.872H218.913V315.728H217.409V318H214.897ZM211.873 313.872H214.945V308.512L211.873 313.872ZM219.957 318V306.56H224.453C226.949 306.56 228.245 307.584 228.245 309.536V309.6C228.245 310.8 227.669 311.68 226.389 312.048C227.877 312.352 228.677 313.2 228.677 314.736V314.8C228.677 316.896 227.301 318 224.661 318H219.957ZM222.485 316.208H224.261C225.541 316.208 226.117 315.632 226.117 314.592V314.528C226.117 313.472 225.541 312.928 224.133 312.928H222.485V316.208ZM222.485 311.264H224.037C225.285 311.264 225.781 310.816 225.781 309.792V309.728C225.781 308.768 225.237 308.336 224.021 308.336H222.485V311.264ZM228.824 318V317.584L233.016 313.152C234.12 311.984 234.824 310.976 234.824 309.936C234.824 308.992 234.296 308.384 233.304 308.384C232.296 308.384 231.656 308.976 231.48 310.48H229.128C229.256 307.84 230.856 306.4 233.416 306.4C235.944 306.4 237.384 307.808 237.384 309.872C237.384 311.392 236.504 312.64 235.176 313.92L233.016 316.032H237.464V318H228.824ZM242.518 318.176C239.99 318.176 238.038 317.008 238.038 314.768C238.038 313.376 238.838 312.368 240.15 311.904C239.11 311.472 238.486 310.672 238.486 309.52C238.486 307.536 240.39 306.4 242.534 306.4C244.726 306.4 246.55 307.552 246.55 309.504C246.55 310.656 245.894 311.44 244.886 311.888C246.23 312.352 246.982 313.344 246.982 314.704C246.982 316.944 245.062 318.176 242.518 318.176ZM242.518 316.288C243.606 316.288 244.422 315.648 244.422 314.512C244.422 313.392 243.606 312.768 242.534 312.768C241.478 312.768 240.614 313.392 240.614 314.528C240.614 315.664 241.462 316.288 242.518 316.288ZM242.55 311.184C243.478 311.184 244.15 310.624 244.15 309.68C244.15 308.8 243.446 308.208 242.534 308.208C241.622 308.208 240.902 308.768 240.902 309.696C240.902 310.624 241.654 311.184 242.55 311.184ZM251.729 318.176C248.913 318.176 247.601 316.64 247.489 314.592H249.873C250.017 315.552 250.401 316.192 251.713 316.192C252.881 316.192 253.505 315.376 253.505 314.16C253.505 312.928 252.801 312.16 251.649 312.16C250.577 312.16 249.921 312.544 249.457 313.072H248.017L248.177 306.56H255.425V308.528H250.113L250.065 311.392C250.513 310.848 251.313 310.336 252.609 310.336C254.689 310.336 256.113 311.76 256.113 314.192C256.113 316.624 254.369 318.176 251.729 318.176ZM262.565 318.176C258.821 318.176 256.821 315.872 256.821 312.352V312.224C256.821 308.752 259.253 306.384 262.501 306.384C265.253 306.384 267.301 307.728 267.573 310.544H264.917C264.725 309.168 263.957 308.432 262.517 308.432C260.709 308.432 259.557 309.84 259.557 312.208V312.336C259.557 314.704 260.645 316.08 262.533 316.08C263.957 316.08 264.949 315.36 265.157 313.888H267.701C267.413 316.72 265.381 318.176 262.565 318.176ZM273.595 318L276.459 313.728L273.787 309.632H276.443L278.011 312.144L279.547 309.632H281.947L279.275 313.552L282.219 318H279.547L277.787 315.184L275.979 318H273.595ZM288.916 318V306.56H296.372V308.576H291.492V311.248H295.396V313.136H291.492V315.984H296.628V318H288.916ZM301.68 318.176C299.152 318.176 297.2 317.008 297.2 314.768C297.2 313.376 298 312.368 299.312 311.904C298.272 311.472 297.648 310.672 297.648 309.52C297.648 307.536 299.552 306.4 301.696 306.4C303.888 306.4 305.712 307.552 305.712 309.504C305.712 310.656 305.056 311.44 304.048 311.888C305.392 312.352 306.144 313.344 306.144 314.704C306.144 316.944 304.224 318.176 301.68 318.176ZM301.68 316.288C302.768 316.288 303.584 315.648 303.584 314.512C303.584 313.392 302.768 312.768 301.696 312.768C300.64 312.768 299.776 313.392 299.776 314.528C299.776 315.664 300.624 316.288 301.68 316.288ZM301.712 311.184C302.64 311.184 303.312 310.624 303.312 309.68C303.312 308.8 302.608 308.208 301.696 308.208C300.784 308.208 300.064 308.768 300.064 309.696C300.064 310.624 300.816 311.184 301.712 311.184ZM309.963 315.984H311.019C313.323 315.984 314.411 314.688 314.411 312.32V312.192C314.411 309.84 313.403 308.576 310.987 308.576H309.963V315.984ZM307.371 318V306.56H311.115C315.131 306.56 317.115 308.736 317.115 312.16V312.288C317.115 315.712 315.115 318 311.099 318H307.371ZM320.932 315.984H321.988C324.292 315.984 325.38 314.688 325.38 312.32V312.192C325.38 309.84 324.372 308.576 321.956 308.576H320.932V315.984ZM318.34 318V306.56H322.084C326.1 306.56 328.084 308.736 328.084 312.16V312.288C328.084 315.712 326.084 318 322.068 318H318.34ZM329.31 318V306.56H336.654V308.592H331.902V311.616H335.662V313.568H331.902V318H329.31ZM336.708 318V317.584L340.9 313.152C342.004 311.984 342.708 310.976 342.708 309.936C342.708 308.992 342.18 308.384 341.188 308.384C340.18 308.384 339.54 308.976 339.364 310.48H337.012C337.14 307.84 338.74 306.4 341.3 306.4C343.828 306.4 345.268 307.808 345.268 309.872C345.268 311.392 344.388 312.64 343.06 313.92L340.9 316.032H345.348V318H336.708Z" fill="#4B285C"/>
</g>
<defs>
<filter id="filter0_d_634_23122" x="0" y="0" width="364" height="350" filterUnits="userSpaceOnUse" color-interpolation-filters="sRGB">
<feFlood flood-opacity="0" result="BackgroundImageFix"/>
<feColorMatrix in="SourceAlpha" type="matrix" values="0 0 0 0 0 0 0 0 0 0 0 0 0 0 0 0 0 0 127 0" result="hardAlpha"/>
<feOffset dy="2"/>
<feGaussianBlur stdDeviation="1"/>
<feComposite in2="hardAlpha" operator="out"/>
<feColorMatrix type="matrix" values="0 0 0 0 1 0 0 0 0 1 0 0 0 0 1 0 0 0 0.25 0"/>
<feBlend mode="normal" in2="BackgroundImageFix" result="effect1_dropShadow_634_23122"/>
<feBlend mode="normal" in="SourceGraphic" in2="effect1_dropShadow_634_23122" result="shape"/>
</filter>
<linearGradient id="paint0_linear_634_23122" x1="32.7966" y1="88.2129" x2="307.029" y2="234.028" gradientUnits="userSpaceOnUse">
<stop stop-color="#4B285C"/>
<stop offset="1" stop-color="#E8DDF2"/>
</linearGradient>
</defs>
</svg>
