<svg width="364" height="350" viewBox="0 0 364 350" fill="none" xmlns="http://www.w3.org/2000/svg">
<g filter="url(#filter0_d_634_23150)">
<rect width="360" height="346" transform="translate(2)" fill="url(#paint0_linear_634_23150)"/>
<path d="M27.696 45.264C22.08 45.264 18.96 41.616 18.96 36.528V36.336C18.96 31.176 22.632 27.576 27.696 27.576C31.512 27.576 34.92 29.328 35.328 33.576H31.464C31.128 31.56 29.808 30.648 27.744 30.648C24.768 30.648 23.016 32.88 23.016 36.384V36.576C23.016 39.888 24.432 42.264 27.792 42.264C30.672 42.264 31.848 40.608 31.92 38.64H28.056V35.808H35.76V37.632C35.76 42.216 32.832 45.264 27.696 45.264ZM37.3026 45V32.448H40.7826V34.848C41.5746 33.168 42.7986 32.28 44.8386 32.256V35.496C42.2706 35.472 40.7826 36.312 40.7826 38.712V45H37.3026ZM51.7125 45.264C47.9205 45.264 45.1605 42.888 45.1605 38.88V38.688C45.1605 34.728 47.9685 32.16 51.6165 32.16C54.8565 32.16 57.7365 34.056 57.7365 38.544V39.504H48.6885C48.7845 41.592 49.9125 42.792 51.8085 42.792C53.4165 42.792 54.2085 42.096 54.4245 41.04H57.7125C57.3045 43.752 55.1445 45.264 51.7125 45.264ZM48.7365 37.368H54.3525C54.2325 35.472 53.2725 34.56 51.6165 34.56C50.0565 34.56 49.0005 35.592 48.7365 37.368ZM60.1697 49.272L62.3777 43.728L57.3857 32.448H61.1297L64.1777 39.984L66.9857 32.448H70.3217L63.5297 49.272H60.1697Z" fill="#828A8E"/>
<circle cx="182" cy="177" r="101.5" fill="#7A7A7A" stroke="#666666"/>
<circle cx="178.05" cy="228" r="28" fill="white" stroke="#666666" stroke-width="2"/>
<path d="M174.05 181C174.05 196.48 161.721 209 146.55 209C131.378 209 119.05 196.48 119.05 181C119.05 165.52 131.378 153 146.55 153C161.721 153 174.05 165.52 174.05 181Z" fill="white" stroke="#666666" stroke-width="2"/>
<circle cx="144.05" cy="201" r="20" fill="white" stroke="#666666" stroke-width="2"/>
<circle cx="144.05" cy="227" r="20" fill="white" stroke="#666666" stroke-width="2"/>
<path d="M262.05 176C262.05 188.171 252.403 198 240.55 198C228.696 198 219.05 188.171 219.05 176C219.05 163.829 228.696 154 240.55 154C252.403 154 262.05 163.829 262.05 176Z" fill="white" stroke="#666666" stroke-width="2"/>
<circle cx="216.55" cy="197.5" r="31.5" fill="white" stroke="#666666" stroke-width="2"/>
<circle cx="174.55" cy="193.5" r="27.5" fill="white" stroke="#666666" stroke-width="2"/>
<circle cx="154.55" cy="141.5" r="27.5" fill="white" stroke="#666666" stroke-width="2"/>
<path d="M206.05 126.5C206.05 141.672 193.53 154 178.05 154C162.569 154 150.05 141.672 150.05 126.5C150.05 111.328 162.569 99 178.05 99C193.53 99 206.05 111.328 206.05 126.5Z" fill="white" stroke="#666666" stroke-width="2"/>
<path d="M248.05 144C248.05 159.48 235.721 172 220.55 172C205.378 172 193.05 159.48 193.05 144C193.05 128.52 205.378 116 220.55 116C235.721 116 248.05 128.52 248.05 144Z" fill="white" stroke="#666666" stroke-width="2"/>
<path d="M219.05 156.5C219.05 168.907 208.772 179 196.05 179C183.327 179 173.05 168.907 173.05 156.5C173.05 144.093 183.327 134 196.05 134C208.772 134 219.05 144.093 219.05 156.5Z" fill="white" stroke="#666666" stroke-width="2"/>
<circle cx="207.05" cy="128" r="23" fill="white" stroke="#666666" stroke-width="2"/>
<circle cx="131.05" cy="150" r="23" fill="white" stroke="#666666" stroke-width="2"/>
<path d="M191.05 136C191.05 154.212 176.065 169 157.55 169C139.034 169 124.05 154.212 124.05 136C124.05 117.788 139.034 103 157.55 103C176.065 103 191.05 117.788 191.05 136Z" fill="white" stroke="#666666" stroke-width="2"/>
<circle cx="130.55" cy="177.5" r="27.5" fill="white" stroke="#666666" stroke-width="2"/>
<circle cx="206.05" cy="224" r="28" fill="white" stroke="#666666" stroke-width="2"/>
<path d="M211.088 318V317.584L215.28 313.152C216.384 311.984 217.088 310.976 217.088 309.936C217.088 308.992 216.56 308.384 215.568 308.384C214.56 308.384 213.92 308.976 213.744 310.48H211.392C211.52 307.84 213.12 306.4 215.68 306.4C218.208 306.4 219.648 307.808 219.648 309.872C219.648 311.392 218.768 312.64 217.44 313.92L215.28 316.032H219.728V318H211.088ZM220.973 318V306.56H228.317V308.592H223.565V311.616H227.325V313.568H223.565V318H220.973ZM228.371 318V317.584L232.563 313.152C233.667 311.984 234.371 310.976 234.371 309.936C234.371 308.992 233.843 308.384 232.851 308.384C231.843 308.384 231.203 308.976 231.027 310.48H228.675C228.803 307.84 230.403 306.4 232.963 306.4C235.491 306.4 236.931 307.808 236.931 309.872C236.931 311.392 236.051 312.64 234.723 313.92L232.563 316.032H237.011V318H228.371ZM238.255 318V306.56H245.599V308.592H240.847V311.616H244.607V313.568H240.847V318H238.255ZM245.653 318V317.584L249.845 313.152C250.949 311.984 251.653 310.976 251.653 309.936C251.653 308.992 251.125 308.384 250.133 308.384C249.125 308.384 248.485 308.976 248.309 310.48H245.957C246.085 307.84 247.685 306.4 250.245 306.4C252.773 306.4 254.213 307.808 254.213 309.872C254.213 311.392 253.333 312.64 252.005 313.92L249.845 316.032H254.293V318H245.653ZM255.538 318V306.56H262.882V308.592H258.13V311.616H261.89V313.568H258.13V318H255.538ZM268.83 318L271.694 313.728L269.022 309.632H271.678L273.246 312.144L274.782 309.632H277.182L274.51 313.552L277.454 318H274.782L273.022 315.184L271.214 318H268.83ZM286.743 315.984H287.799C290.103 315.984 291.191 314.688 291.191 312.32V312.192C291.191 309.84 290.183 308.576 287.767 308.576H286.743V315.984ZM284.151 318V306.56H287.895C291.911 306.56 293.895 308.736 293.895 312.16V312.288C293.895 315.712 291.895 318 287.879 318H284.151ZM298.848 318.16C296.368 318.16 294.896 316.976 294.64 314.912H297.056C297.216 315.696 297.68 316.192 298.768 316.192C300.288 316.192 301.04 314.992 301.088 312.656C300.56 313.488 299.728 314.048 298.352 314.048C296.144 314.048 294.528 312.672 294.528 310.352C294.528 307.984 296.224 306.384 298.96 306.384C302.112 306.384 303.632 308.512 303.632 311.808V312.32C303.632 316.064 301.92 318.16 298.848 318.16ZM298.928 312.32C300.096 312.32 300.88 311.52 300.88 310.4C300.88 309.072 300.096 308.256 298.928 308.256C297.792 308.256 297.04 309.088 297.04 310.288C297.04 311.488 297.776 312.32 298.928 312.32ZM307.557 315.984H308.613C310.917 315.984 312.005 314.688 312.005 312.32V312.192C312.005 309.84 310.997 308.576 308.581 308.576H307.557V315.984ZM304.965 318V306.56H308.709C312.725 306.56 314.709 308.736 314.709 312.16V312.288C314.709 315.712 312.709 318 308.693 318H304.965ZM319.662 318.16C317.182 318.16 315.71 316.976 315.454 314.912H317.87C318.03 315.696 318.494 316.192 319.582 316.192C321.102 316.192 321.854 314.992 321.902 312.656C321.374 313.488 320.542 314.048 319.166 314.048C316.958 314.048 315.342 312.672 315.342 310.352C315.342 307.984 317.038 306.384 319.774 306.384C322.926 306.384 324.446 308.512 324.446 311.808V312.32C324.446 316.064 322.734 318.16 319.662 318.16ZM319.742 312.32C320.91 312.32 321.694 311.52 321.694 310.4C321.694 309.072 320.91 308.256 319.742 308.256C318.606 308.256 317.854 309.088 317.854 310.288C317.854 311.488 318.59 312.32 319.742 312.32ZM328.37 315.984H329.426C331.73 315.984 332.818 314.688 332.818 312.32V312.192C332.818 309.84 331.81 308.576 329.394 308.576H328.37V315.984ZM325.778 318V306.56H329.522C333.538 306.56 335.522 308.736 335.522 312.16V312.288C335.522 315.712 333.522 318 329.506 318H325.778ZM340.476 318.16C337.996 318.16 336.524 316.976 336.268 314.912H338.684C338.844 315.696 339.308 316.192 340.396 316.192C341.916 316.192 342.668 314.992 342.716 312.656C342.188 313.488 341.356 314.048 339.98 314.048C337.772 314.048 336.156 312.672 336.156 310.352C336.156 307.984 337.852 306.384 340.588 306.384C343.74 306.384 345.26 308.512 345.26 311.808V312.32C345.26 316.064 343.548 318.16 340.476 318.16ZM340.556 312.32C341.724 312.32 342.508 311.52 342.508 310.4C342.508 309.072 341.724 308.256 340.556 308.256C339.42 308.256 338.668 309.088 338.668 310.288C338.668 311.488 339.404 312.32 340.556 312.32Z" fill="#404040"/>
</g>
<defs>
<filter id="filter0_d_634_23150" x="0" y="0" width="364" height="350" filterUnits="userSpaceOnUse" color-interpolation-filters="sRGB">
<feFlood flood-opacity="0" result="BackgroundImageFix"/>
<feColorMatrix in="SourceAlpha" type="matrix" values="0 0 0 0 0 0 0 0 0 0 0 0 0 0 0 0 0 0 127 0" result="hardAlpha"/>
<feOffset dy="2"/>
<feGaussianBlur stdDeviation="1"/>
<feComposite in2="hardAlpha" operator="out"/>
<feColorMatrix type="matrix" values="0 0 0 0 1 0 0 0 0 1 0 0 0 0 1 0 0 0 0.25 0"/>
<feBlend mode="normal" in2="BackgroundImageFix" result="effect1_dropShadow_634_23150"/>
<feBlend mode="normal" in="SourceGraphic" in2="effect1_dropShadow_634_23150" result="shape"/>
</filter>
<linearGradient id="paint0_linear_634_23150" x1="32.7966" y1="88.2129" x2="307.029" y2="234.028" gradientUnits="userSpaceOnUse">
<stop stop-color="#2F2F2F"/>
<stop offset="1" stop-color="#D9D9D9"/>
</linearGradient>
</defs>
</svg>
