<svg width="883" height="883" viewBox="0 0 883 883" fill="none" xmlns="http://www.w3.org/2000/svg">
<path d="M441.5 0L475.291 359.921L753.686 129.312L523.077 407.709L883 441.5L523.077 475.291L753.686 753.686L475.291 523.077L441.5 883L407.709 523.077L129.313 753.686L359.921 475.291L0 441.5L359.921 407.709L129.313 129.312L407.709 359.921L441.5 0Z" fill="#2176AE" fill-opacity="0.06"/>
<mask id="mask0_465_624" style="mask-type:luminance" maskUnits="userSpaceOnUse" x="372" y="188" width="139" height="468">
<path d="M497.006 189.282L509.946 192.749L386 655.323L373.06 651.855L497.006 189.282Z" fill="white" stroke="white"/>
</mask>
<g mask="url(#mask0_465_624)">
<path d="M503.603 190.533L446.467 403.761" stroke="#E56B6F" stroke-opacity="0.05" stroke-width="2"/>
</g>
<mask id="mask1_465_624" style="mask-type:luminance" maskUnits="userSpaceOnUse" x="343" y="197" width="197" height="450">
<path d="M526.942 198.522L539.319 203.649L356.056 646.087L343.679 640.96L526.942 198.522Z" fill="white" stroke="white"/>
</mask>
<g mask="url(#mask1_465_624)">
<path d="M533.325 200.624L448.848 404.57" stroke="#E56B6F" stroke-opacity="0.05" stroke-width="2"/>
</g>
<mask id="mask2_465_624" style="mask-type:luminance" maskUnits="userSpaceOnUse" x="315" y="210" width="253" height="424">
<path d="M555.425 211.588L567.027 218.287L327.581 633.019L315.98 626.32L555.425 211.588Z" fill="white" stroke="white"/>
</mask>
<g mask="url(#mask2_465_624)">
<path d="M561.475 214.504L451.1 405.679" stroke="#E56B6F" stroke-opacity="0.05" stroke-width="2"/>
</g>
<mask id="mask3_465_624" style="mask-type:luminance" maskUnits="userSpaceOnUse" x="289" y="227" width="305" height="391">
<path d="M581.95 228.26L592.578 236.415L301.047 616.345L290.419 608.19L581.95 228.26Z" fill="white" stroke="white"/>
</mask>
<g mask="url(#mask3_465_624)">
<path d="M587.566 231.942L453.182 407.075" stroke="#E56B6F" stroke-opacity="0.05" stroke-width="2"/>
</g>
<mask id="mask4_465_624" style="mask-type:luminance" maskUnits="userSpaceOnUse" x="266" y="247" width="351" height="351">
<path d="M606.072 248.254L615.545 257.727L276.918 596.354L267.445 586.881L606.072 248.254Z" fill="white" stroke="white"/>
</mask>
<g mask="url(#mask4_465_624)">
<path d="M611.167 252.638L455.072 408.731" stroke="#E56B6F" stroke-opacity="0.05" stroke-width="2"/>
</g>
<mask id="mask5_465_624" style="mask-type:luminance" maskUnits="userSpaceOnUse" x="246" y="270" width="391" height="305">
<path d="M627.39 271.223L635.546 281.851L255.615 573.382L247.46 562.754L627.39 271.223Z" fill="white" stroke="white"/>
</mask>
<g mask="url(#mask5_465_624)">
<path d="M631.864 276.233L456.732 410.617" stroke="#E56B6F" stroke-opacity="0.05" stroke-width="2"/>
</g>
<mask id="mask6_465_624" style="mask-type:luminance" maskUnits="userSpaceOnUse" x="230" y="296" width="423" height="253">
<path d="M645.512 296.78L652.211 308.382L237.479 547.828L230.78 536.226L645.512 296.78Z" fill="white" stroke="white"/>
</mask>
<g mask="url(#mask6_465_624)">
<path d="M649.299 302.332L458.125 412.707" stroke="#E56B6F" stroke-opacity="0.05" stroke-width="2"/>
</g>
<mask id="mask7_465_624" style="mask-type:luminance" maskUnits="userSpaceOnUse" x="217" y="323" width="449" height="198">
<path d="M660.143 324.484L665.27 336.861L222.832 520.125L217.706 507.748L660.143 324.484Z" fill="white" stroke="white"/>
</mask>
<g mask="url(#mask7_465_624)">
<path d="M663.183 330.481L459.236 414.958" stroke="#E56B6F" stroke-opacity="0.05" stroke-width="2"/>
</g>
<mask id="mask8_465_624" style="mask-type:luminance" maskUnits="userSpaceOnUse" x="207" y="353" width="469" height="139">
<path d="M671.062 353.862L674.53 366.803L211.956 490.749L208.489 477.809L671.062 353.862Z" fill="white" stroke="white"/>
</mask>
<g mask="url(#mask8_465_624)">
<path d="M673.277 360.202L460.049 417.336" stroke="#E56B6F" stroke-opacity="0.05" stroke-width="2"/>
</g>
<mask id="mask9_465_624" style="mask-type:luminance" maskUnits="userSpaceOnUse" x="202" y="383" width="479" height="78">
<path d="M678.025 384.41L679.773 397.692L204.979 460.2L203.23 446.917L678.025 384.41Z" fill="white" stroke="white"/>
</mask>
<g mask="url(#mask9_465_624)">
<path d="M679.397 390.985L460.535 419.799" stroke="#E56B6F" stroke-opacity="0.05" stroke-width="2"/>
</g>
<mask id="mask10_465_624" style="mask-type:luminance" maskUnits="userSpaceOnUse" x="201" y="415" width="481" height="15">
<path d="M680.953 415.604V429.001L202.062 429.001V415.604L680.953 415.604Z" fill="white" stroke="white"/>
</mask>
<g mask="url(#mask10_465_624)">
<path d="M681.451 422.304H460.701" stroke="#E56B6F" stroke-opacity="0.05" stroke-width="2"/>
</g>
<mask id="mask11_465_624" style="mask-type:luminance" maskUnits="userSpaceOnUse" x="202" y="383" width="479" height="78">
<path d="M679.779 446.912L678.03 460.195L203.236 397.687L204.984 384.405L679.779 446.912Z" fill="white" stroke="white"/>
</mask>
<g mask="url(#mask11_465_624)">
<path d="M679.401 453.621L460.539 424.806" stroke="#E56B6F" stroke-opacity="0.05" stroke-width="2"/>
</g>
<mask id="mask12_465_624" style="mask-type:luminance" maskUnits="userSpaceOnUse" x="207" y="353" width="469" height="139">
<path d="M674.522 477.804L671.055 490.744L208.482 366.798L211.949 353.858L674.522 477.804Z" fill="white" stroke="white"/>
</mask>
<g mask="url(#mask12_465_624)">
<path d="M673.263 484.404L460.035 427.271" stroke="#E56B6F" stroke-opacity="0.05" stroke-width="2"/>
</g>
<mask id="mask13_465_624" style="mask-type:luminance" maskUnits="userSpaceOnUse" x="217" y="323" width="449" height="198">
<path d="M665.274 507.746L660.148 520.123L217.71 336.859L222.837 324.482L665.274 507.746Z" fill="white" stroke="white"/>
</mask>
<g mask="url(#mask13_465_624)">
<path d="M663.177 514.125L459.23 429.649" stroke="#E56B6F" stroke-opacity="0.05" stroke-width="2"/>
</g>
<mask id="mask14_465_624" style="mask-type:luminance" maskUnits="userSpaceOnUse" x="230" y="296" width="423" height="253">
<path d="M652.215 536.227L645.517 547.829L230.785 308.384L237.483 296.782L652.215 536.227Z" fill="white" stroke="white"/>
</mask>
<g mask="url(#mask14_465_624)">
<path d="M649.299 542.277L458.125 431.902" stroke="#E56B6F" stroke-opacity="0.05" stroke-width="2"/>
</g>
<mask id="mask15_465_624" style="mask-type:luminance" maskUnits="userSpaceOnUse" x="246" y="270" width="391" height="305">
<path d="M635.539 562.754L627.384 573.382L247.454 281.852L255.609 271.223L635.539 562.754Z" fill="white" stroke="white"/>
</mask>
<g mask="url(#mask15_465_624)">
<path d="M631.86 568.373L456.727 433.989" stroke="#E56B6F" stroke-opacity="0.05" stroke-width="2"/>
</g>
<mask id="mask16_465_624" style="mask-type:luminance" maskUnits="userSpaceOnUse" x="266" y="247" width="351" height="351">
<path d="M615.557 586.878L606.084 596.351L267.456 257.724L276.929 248.251L615.557 586.878Z" fill="white" stroke="white"/>
</mask>
<g mask="url(#mask16_465_624)">
<path d="M611.174 591.97L455.08 435.875" stroke="#E56B6F" stroke-opacity="0.05" stroke-width="2"/>
</g>
<mask id="mask17_465_624" style="mask-type:luminance" maskUnits="userSpaceOnUse" x="289" y="227" width="305" height="391">
<path d="M592.572 608.192L581.944 616.347L290.413 236.417L301.042 228.262L592.572 608.192Z" fill="white" stroke="white"/>
</mask>
<g mask="url(#mask17_465_624)">
<path d="M587.562 612.665L453.176 437.533" stroke="#E56B6F" stroke-opacity="0.05" stroke-width="2"/>
</g>
<mask id="mask18_465_624" style="mask-type:luminance" maskUnits="userSpaceOnUse" x="315" y="210" width="253" height="424">
<path d="M567.026 626.32L555.424 633.019L315.978 218.287L327.58 211.588L567.026 626.32Z" fill="white" stroke="white"/>
</mask>
<g mask="url(#mask18_465_624)">
<path d="M561.475 630.102L451.1 438.925" stroke="#E56B6F" stroke-opacity="0.05" stroke-width="2"/>
</g>
<mask id="mask19_465_624" style="mask-type:luminance" maskUnits="userSpaceOnUse" x="343" y="197" width="197" height="450">
<path d="M539.306 640.957L526.929 646.084L343.665 203.646L356.042 198.52L539.306 640.957Z" fill="white" stroke="white"/>
</mask>
<g mask="url(#mask19_465_624)">
<path d="M533.318 643.983L448.84 440.037" stroke="#E56B6F" stroke-opacity="0.05" stroke-width="2"/>
</g>
<mask id="mask20_465_624" style="mask-type:luminance" maskUnits="userSpaceOnUse" x="372" y="188" width="139" height="468">
<path d="M509.946 651.856L497.006 655.323L373.06 192.75L386 189.282L509.946 651.856Z" fill="white" stroke="white"/>
</mask>
<g mask="url(#mask20_465_624)">
<path d="M503.608 654.074L446.475 440.844" stroke="#E56B6F" stroke-opacity="0.05" stroke-width="2"/>
</g>
<mask id="mask21_465_624" style="mask-type:luminance" maskUnits="userSpaceOnUse" x="403" y="183" width="77" height="479">
<path d="M479.398 658.827L466.116 660.576L403.608 185.782L416.89 184.033L479.398 658.827Z" fill="white" stroke="white"/>
</mask>
<g mask="url(#mask21_465_624)">
<path d="M472.826 660.199L444.014 441.337" stroke="#E56B6F" stroke-opacity="0.05" stroke-width="2"/>
</g>
<mask id="mask22_465_624" style="mask-type:luminance" maskUnits="userSpaceOnUse" x="434" y="182" width="15" height="481">
<path d="M448.199 661.747H434.802L434.802 182.855H448.199L448.199 661.747Z" fill="white" stroke="white"/>
</mask>
<g mask="url(#mask22_465_624)">
<path d="M441.498 662.249V441.499" stroke="#E56B6F" stroke-opacity="0.05" stroke-width="2"/>
</g>
<mask id="mask23_465_624" style="mask-type:luminance" maskUnits="userSpaceOnUse" x="403" y="183" width="77" height="479">
<path d="M416.876 660.572L403.594 658.824L466.102 184.029L479.384 185.778L416.876 660.572Z" fill="white" stroke="white"/>
</mask>
<g mask="url(#mask23_465_624)">
<path d="M410.172 660.196L438.986 441.334" stroke="#E56B6F" stroke-opacity="0.05" stroke-width="2"/>
</g>
<mask id="mask24_465_624" style="mask-type:luminance" maskUnits="userSpaceOnUse" x="372" y="188" width="139" height="468">
<path d="M385.996 655.324L373.056 651.857L497.002 189.283L509.942 192.751L385.996 655.324Z" fill="white" stroke="white"/>
</mask>
<g mask="url(#mask24_465_624)">
<path d="M379.4 654.073L436.535 440.843" stroke="#E56B6F" stroke-opacity="0.05" stroke-width="2"/>
</g>
<mask id="mask25_465_624" style="mask-type:luminance" maskUnits="userSpaceOnUse" x="343" y="197" width="197" height="450">
<path d="M356.044 646.084L343.667 640.957L526.931 198.519L539.308 203.646L356.044 646.084Z" fill="white" stroke="white"/>
</mask>
<g mask="url(#mask25_465_624)">
<path d="M349.672 643.984L434.149 440.037" stroke="#E56B6F" stroke-opacity="0.05" stroke-width="2"/>
</g>
<mask id="mask26_465_624" style="mask-type:luminance" maskUnits="userSpaceOnUse" x="315" y="210" width="253" height="424">
<path d="M327.587 633.019L315.985 626.32L555.43 211.588L567.032 218.287L327.587 633.019Z" fill="white" stroke="white"/>
</mask>
<g mask="url(#mask26_465_624)">
<path d="M321.531 630.103L431.906 438.926" stroke="#E56B6F" stroke-opacity="0.05" stroke-width="2"/>
</g>
<mask id="mask27_465_624" style="mask-type:luminance" maskUnits="userSpaceOnUse" x="289" y="227" width="305" height="391">
<path d="M301.046 616.346L290.418 608.19L581.949 228.26L592.577 236.416L301.046 616.346Z" fill="white" stroke="white"/>
</mask>
<g mask="url(#mask27_465_624)">
<path d="M295.426 612.662L429.81 437.531" stroke="#E56B6F" stroke-opacity="0.05" stroke-width="2"/>
</g>
<mask id="mask28_465_624" style="mask-type:luminance" maskUnits="userSpaceOnUse" x="266" y="247" width="351" height="351">
<path d="M276.918 596.354L267.445 586.881L606.072 248.254L615.545 257.727L276.918 596.354Z" fill="white" stroke="white"/>
</mask>
<g mask="url(#mask28_465_624)">
<path d="M271.83 591.97L427.924 435.876" stroke="#E56B6F" stroke-opacity="0.05" stroke-width="2"/>
</g>
<mask id="mask29_465_624" style="mask-type:luminance" maskUnits="userSpaceOnUse" x="246" y="270" width="391" height="305">
<path d="M255.614 573.381L247.458 562.753L627.388 271.222L635.544 281.85L255.614 573.381Z" fill="white" stroke="white"/>
</mask>
<g mask="url(#mask29_465_624)">
<path d="M251.135 568.373L426.267 433.989" stroke="#E56B6F" stroke-opacity="0.05" stroke-width="2"/>
</g>
<mask id="mask30_465_624" style="mask-type:luminance" maskUnits="userSpaceOnUse" x="230" y="296" width="423" height="253">
<path d="M237.488 547.828L230.789 536.226L645.521 296.78L652.22 308.382L237.488 547.828Z" fill="white" stroke="white"/>
</mask>
<g mask="url(#mask30_465_624)">
<path d="M233.693 542.276L424.868 431.901" stroke="#E56B6F" stroke-opacity="0.05" stroke-width="2"/>
</g>
<mask id="mask31_465_624" style="mask-type:luminance" maskUnits="userSpaceOnUse" x="217" y="323" width="449" height="198">
<path d="M222.837 520.125L217.71 507.748L660.148 324.484L665.275 336.861L222.837 520.125Z" fill="white" stroke="white"/>
</mask>
<g mask="url(#mask31_465_624)">
<path d="M219.82 514.127L423.767 429.651" stroke="#E56B6F" stroke-opacity="0.05" stroke-width="2"/>
</g>
<mask id="mask32_465_624" style="mask-type:luminance" maskUnits="userSpaceOnUse" x="207" y="353" width="469" height="139">
<path d="M211.936 490.747L208.468 477.807L671.042 353.861L674.509 366.801L211.936 490.747Z" fill="white" stroke="white"/>
</mask>
<g mask="url(#mask32_465_624)">
<path d="M209.727 484.406L422.955 427.27" stroke="#E56B6F" stroke-opacity="0.05" stroke-width="2"/>
</g>
<mask id="mask33_465_624" style="mask-type:luminance" maskUnits="userSpaceOnUse" x="202" y="383" width="479" height="78">
<path d="M204.981 460.198L203.233 446.916L678.027 384.408L679.776 397.69L204.981 460.198Z" fill="white" stroke="white"/>
</mask>
<g mask="url(#mask33_465_624)">
<path d="M203.615 453.624L422.477 424.809" stroke="#E56B6F" stroke-opacity="0.05" stroke-width="2"/>
</g>
<mask id="mask34_465_624" style="mask-type:luminance" maskUnits="userSpaceOnUse" x="201" y="415" width="481" height="15">
<path d="M202.049 429.003V415.606L680.94 415.606V429.003L202.049 429.003Z" fill="white" stroke="white"/>
</mask>
<g mask="url(#mask34_465_624)">
<path d="M201.549 422.305H422.299" stroke="#E56B6F" stroke-opacity="0.05" stroke-width="2"/>
</g>
<mask id="mask35_465_624" style="mask-type:luminance" maskUnits="userSpaceOnUse" x="202" y="383" width="479" height="78">
<path d="M203.235 397.691L204.983 384.409L679.778 446.916L678.029 460.198L203.235 397.691Z" fill="white" stroke="white"/>
</mask>
<g mask="url(#mask35_465_624)">
<path d="M203.611 390.985L422.473 419.798" stroke="#E56B6F" stroke-opacity="0.05" stroke-width="2"/>
</g>
<mask id="mask36_465_624" style="mask-type:luminance" maskUnits="userSpaceOnUse" x="207" y="353" width="469" height="139">
<path d="M208.47 366.799L211.937 353.859L674.511 477.805L671.043 490.745L208.47 366.799Z" fill="white" stroke="white"/>
</mask>
<g mask="url(#mask36_465_624)">
<path d="M209.727 360.198L422.955 417.333" stroke="#E56B6F" stroke-opacity="0.05" stroke-width="2"/>
</g>
<mask id="mask37_465_624" style="mask-type:luminance" maskUnits="userSpaceOnUse" x="217" y="323" width="449" height="198">
<path d="M217.706 336.861L222.833 324.484L665.271 507.748L660.144 520.125L217.706 336.861Z" fill="white" stroke="white"/>
</mask>
<g mask="url(#mask37_465_624)">
<path d="M219.82 330.479L423.767 414.956" stroke="#E56B6F" stroke-opacity="0.05" stroke-width="2"/>
</g>
<mask id="mask38_465_624" style="mask-type:luminance" maskUnits="userSpaceOnUse" x="230" y="296" width="423" height="253">
<path d="M230.785 308.381L237.483 296.78L652.215 536.225L645.517 547.827L230.785 308.381Z" fill="white" stroke="white"/>
</mask>
<g mask="url(#mask38_465_624)">
<path d="M233.695 302.33L424.87 412.705" stroke="#E56B6F" stroke-opacity="0.05" stroke-width="2"/>
</g>
<mask id="mask39_465_624" style="mask-type:luminance" maskUnits="userSpaceOnUse" x="246" y="270" width="391" height="305">
<path d="M247.453 281.852L255.608 271.223L635.538 562.754L627.383 573.382L247.453 281.852Z" fill="white" stroke="white"/>
</mask>
<g mask="url(#mask39_465_624)">
<path d="M251.131 276.231L426.264 410.616" stroke="#E56B6F" stroke-opacity="0.05" stroke-width="2"/>
</g>
<mask id="mask40_465_624" style="mask-type:luminance" maskUnits="userSpaceOnUse" x="266" y="247" width="351" height="351">
<path d="M267.443 257.726L276.916 248.253L615.544 586.88L606.071 596.353L267.443 257.726Z" fill="white" stroke="white"/>
</mask>
<g mask="url(#mask40_465_624)">
<path d="M271.83 252.635L427.924 408.729" stroke="#E56B6F" stroke-opacity="0.05" stroke-width="2"/>
</g>
<mask id="mask41_465_624" style="mask-type:luminance" maskUnits="userSpaceOnUse" x="289" y="227" width="305" height="391">
<path d="M290.418 236.415L301.046 228.26L592.577 608.19L581.948 616.345L290.418 236.415Z" fill="white" stroke="white"/>
</mask>
<g mask="url(#mask41_465_624)">
<path d="M295.426 231.943L429.81 407.076" stroke="#E56B6F" stroke-opacity="0.05" stroke-width="2"/>
</g>
<mask id="mask42_465_624" style="mask-type:luminance" maskUnits="userSpaceOnUse" x="315" y="210" width="253" height="424">
<path d="M315.978 218.286L327.58 211.587L567.026 626.319L555.424 633.018L315.978 218.286Z" fill="white" stroke="white"/>
</mask>
<g mask="url(#mask42_465_624)">
<path d="M321.527 214.504L431.902 405.679" stroke="#E56B6F" stroke-opacity="0.05" stroke-width="2"/>
</g>
<mask id="mask43_465_624" style="mask-type:luminance" maskUnits="userSpaceOnUse" x="343" y="197" width="197" height="450">
<path d="M343.667 203.646L356.044 198.519L539.308 640.957L526.931 646.084L343.667 203.646Z" fill="white" stroke="white"/>
</mask>
<g mask="url(#mask43_465_624)">
<path d="M349.668 200.621L434.145 404.567" stroke="#E56B6F" stroke-opacity="0.05" stroke-width="2"/>
</g>
<mask id="mask44_465_624" style="mask-type:luminance" maskUnits="userSpaceOnUse" x="372" y="188" width="139" height="468">
<path d="M373.056 192.75L385.996 189.283L509.942 651.856L497.002 655.324L373.056 192.75Z" fill="white" stroke="white"/>
</mask>
<g mask="url(#mask44_465_624)">
<path d="M379.398 190.533L436.533 403.761" stroke="#E56B6F" stroke-opacity="0.05" stroke-width="2"/>
</g>
<mask id="mask45_465_624" style="mask-type:luminance" maskUnits="userSpaceOnUse" x="403" y="183" width="77" height="479">
<path d="M403.594 185.779L416.876 184.03L479.384 658.824L466.102 660.573L403.594 185.779Z" fill="white" stroke="white"/>
</mask>
<g mask="url(#mask45_465_624)">
<path d="M410.172 184.411L438.986 403.272" stroke="#E56B6F" stroke-opacity="0.05" stroke-width="2"/>
</g>
<mask id="mask46_465_624" style="mask-type:luminance" maskUnits="userSpaceOnUse" x="434" y="182" width="15" height="481">
<path d="M434.803 182.855H448.199V661.746H434.803V182.855Z" fill="white" stroke="white"/>
</mask>
<g mask="url(#mask46_465_624)">
<path d="M441.5 182.355V403.105" stroke="#E56B6F" stroke-opacity="0.05" stroke-width="2"/>
</g>
<mask id="mask47_465_624" style="mask-type:luminance" maskUnits="userSpaceOnUse" x="403" y="183" width="77" height="479">
<path d="M466.102 184.03L479.384 185.778L416.876 660.573L403.594 658.824L466.102 184.03Z" fill="white" stroke="white"/>
</mask>
<g mask="url(#mask47_465_624)">
<path d="M472.817 184.411L444.004 403.272" stroke="#E56B6F" stroke-opacity="0.05" stroke-width="2"/>
</g>
<path d="M578.269 422.206C524.614 427.08 493.788 431.565 474.863 446.382C452.621 463.734 447.353 495.514 441.499 559.073C435.451 493.174 429.988 461.589 405.6 444.627C386.675 431.37 356.043 427.08 304.73 422.401C358.189 417.527 389.211 413.043 407.941 398.42C430.378 380.873 435.646 349.289 441.499 285.535C446.962 344.22 451.84 375.609 469.985 393.741C488.13 411.873 519.737 416.942 578.269 422.206Z" fill="#E56B6F" fill-opacity="0.05"/>
</svg>
