<svg width="364" height="350" viewBox="0 0 364 350" fill="none" xmlns="http://www.w3.org/2000/svg">
<g filter="url(#filter0_d_634_23344)">
<rect width="360" height="346" transform="translate(2)" fill="url(#paint0_linear_634_23344)"/>
<path d="M27.696 45.264C22.08 45.264 18.96 41.616 18.96 36.528V36.336C18.96 31.176 22.632 27.576 27.696 27.576C31.512 27.576 34.92 29.328 35.328 33.576H31.464C31.128 31.56 29.808 30.648 27.744 30.648C24.768 30.648 23.016 32.88 23.016 36.384V36.576C23.016 39.888 24.432 42.264 27.792 42.264C30.672 42.264 31.848 40.608 31.92 38.64H28.056V35.808H35.76V37.632C35.76 42.216 32.832 45.264 27.696 45.264ZM37.3026 45V32.448H40.7826V34.848C41.5746 33.168 42.7986 32.28 44.8386 32.256V35.496C42.2706 35.472 40.7826 36.312 40.7826 38.712V45H37.3026ZM51.7125 45.264C47.9205 45.264 45.1605 42.888 45.1605 38.88V38.688C45.1605 34.728 47.9685 32.16 51.6165 32.16C54.8565 32.16 57.7365 34.056 57.7365 38.544V39.504H48.6885C48.7845 41.592 49.9125 42.792 51.8085 42.792C53.4165 42.792 54.2085 42.096 54.4245 41.04H57.7125C57.3045 43.752 55.1445 45.264 51.7125 45.264ZM48.7365 37.368H54.3525C54.2325 35.472 53.2725 34.56 51.6165 34.56C50.0565 34.56 49.0005 35.592 48.7365 37.368ZM64.8384 45.264C61.0464 45.264 58.2864 42.888 58.2864 38.88V38.688C58.2864 34.728 61.0944 32.16 64.7424 32.16C67.9824 32.16 70.8624 34.056 70.8624 38.544V39.504H61.8144C61.9104 41.592 63.0384 42.792 64.9344 42.792C66.5424 42.792 67.3344 42.096 67.5504 41.04H70.8384C70.4304 43.752 68.2704 45.264 64.8384 45.264ZM61.8624 37.368H67.4784C67.3584 35.472 66.3984 34.56 64.7424 34.56C63.1824 34.56 62.1264 35.592 61.8624 37.368ZM72.1804 45V32.448H75.6604V34.44C76.2844 33.192 77.6524 32.16 79.7404 32.16C82.2124 32.16 83.9644 33.648 83.9644 37.008V45H80.4844V37.512C80.4844 35.808 79.8124 34.992 78.2764 34.992C76.7884 34.992 75.6604 35.904 75.6604 37.752V45H72.1804Z" fill="#7EAD92"/>
<circle cx="182" cy="177" r="102" fill="#7A9B8A"/>
<circle cx="178.05" cy="228" r="28" fill="white" stroke="#5D9578" stroke-width="2"/>
<path d="M174.05 181C174.05 196.48 161.721 209 146.55 209C131.378 209 119.05 196.48 119.05 181C119.05 165.52 131.378 153 146.55 153C161.721 153 174.05 165.52 174.05 181Z" fill="white" stroke="#5D9578" stroke-width="2"/>
<circle cx="144.05" cy="201" r="20" fill="white" stroke="#5D9578" stroke-width="2"/>
<circle cx="144.05" cy="227" r="20" fill="white" stroke="#5D9578" stroke-width="2"/>
<path d="M262.05 176C262.05 188.171 252.403 198 240.55 198C228.696 198 219.05 188.171 219.05 176C219.05 163.829 228.696 154 240.55 154C252.403 154 262.05 163.829 262.05 176Z" fill="white" stroke="#5D9578" stroke-width="2"/>
<circle cx="216.55" cy="197.5" r="31.5" fill="white" stroke="#5D9578" stroke-width="2"/>
<circle cx="174.55" cy="193.5" r="27.5" fill="white" stroke="#5D9578" stroke-width="2"/>
<circle cx="154.55" cy="141.5" r="27.5" fill="white" stroke="#5D9578" stroke-width="2"/>
<path d="M206.05 126.5C206.05 141.672 193.53 154 178.05 154C162.569 154 150.05 141.672 150.05 126.5C150.05 111.328 162.569 99 178.05 99C193.53 99 206.05 111.328 206.05 126.5Z" fill="white" stroke="#5D9578" stroke-width="2"/>
<path d="M248.05 144C248.05 159.48 235.721 172 220.55 172C205.378 172 193.05 159.48 193.05 144C193.05 128.52 205.378 116 220.55 116C235.721 116 248.05 128.52 248.05 144Z" fill="white" stroke="#5D9578" stroke-width="2"/>
<path d="M219.05 156.5C219.05 168.907 208.772 179 196.05 179C183.327 179 173.05 168.907 173.05 156.5C173.05 144.093 183.327 134 196.05 134C208.772 134 219.05 144.093 219.05 156.5Z" fill="white" stroke="#5D9578" stroke-width="2"/>
<circle cx="207.05" cy="128" r="23" fill="white" stroke="#5D9578" stroke-width="2"/>
<circle cx="131.05" cy="150" r="23" fill="white" stroke="#5D9578" stroke-width="2"/>
<path d="M191.05 136C191.05 154.212 176.065 169 157.55 169C139.034 169 124.05 154.212 124.05 136C124.05 117.788 139.034 103 157.55 103C176.065 103 191.05 117.788 191.05 136Z" fill="white" stroke="#5D9578" stroke-width="2"/>
<circle cx="130.55" cy="177.5" r="27.5" fill="white" stroke="#5D9578" stroke-width="2"/>
<circle cx="206.05" cy="224" r="28" fill="white" stroke="#5D9578" stroke-width="2"/>
<path d="M216.994 318V309.12L214.674 310.64V308.432L217.314 306.56H219.586V318H216.994ZM220.749 318L224.509 306.56H227.885L231.597 318H228.893L228.109 315.456H223.965L223.181 318H220.749ZM226.045 308.672L224.525 313.616H227.549L226.045 308.672ZM236.712 318.176C233.256 318.176 232.008 315.84 232.008 312.72V312.432C232.008 308.56 234.104 306.4 236.904 306.4C239.176 306.4 240.616 307.472 240.872 309.568H238.472C238.312 308.816 237.928 308.352 236.936 308.352C235.512 308.352 234.632 309.6 234.568 311.952C235.096 311.104 235.96 310.528 237.336 310.528C239.496 310.528 241.112 311.936 241.112 314.24C241.112 316.592 239.432 318.176 236.712 318.176ZM236.68 316.304C237.816 316.304 238.568 315.472 238.568 314.272C238.568 313.072 237.848 312.24 236.68 312.24C235.528 312.24 234.728 313.056 234.728 314.192C234.728 315.504 235.528 316.304 236.68 316.304ZM246.307 318.176C242.851 318.176 241.603 315.84 241.603 312.72V312.432C241.603 308.56 243.699 306.4 246.499 306.4C248.771 306.4 250.211 307.472 250.467 309.568H248.067C247.907 308.816 247.523 308.352 246.531 308.352C245.107 308.352 244.227 309.6 244.163 311.952C244.691 311.104 245.555 310.528 246.931 310.528C249.091 310.528 250.707 311.936 250.707 314.24C250.707 316.592 249.027 318.176 246.307 318.176ZM246.275 316.304C247.411 316.304 248.163 315.472 248.163 314.272C248.163 313.072 247.443 312.24 246.275 312.24C245.123 312.24 244.323 313.056 244.323 314.192C244.323 315.504 245.123 316.304 246.275 316.304ZM256.665 318V315.728H251.049V314.784L255.993 306.56H259.177V313.872H260.681V315.728H259.177V318H256.665ZM253.641 313.872H256.713V308.512L253.641 313.872ZM260.685 318V317.584L264.877 313.152C265.981 311.984 266.685 310.976 266.685 309.936C266.685 308.992 266.157 308.384 265.165 308.384C264.157 308.384 263.517 308.976 263.341 310.48H260.989C261.117 307.84 262.717 306.4 265.277 306.4C267.805 306.4 269.245 307.808 269.245 309.872C269.245 311.392 268.365 312.64 267.037 313.92L264.877 316.032H269.325V318H260.685ZM275.423 318L278.287 313.728L275.615 309.632H278.271L279.839 312.144L281.375 309.632H283.775L281.103 313.552L284.047 318H281.375L279.615 315.184L277.807 318H275.423ZM293.337 315.984H294.393C296.697 315.984 297.785 314.688 297.785 312.32V312.192C297.785 309.84 296.777 308.576 294.361 308.576H293.337V315.984ZM290.745 318V306.56H294.489C298.505 306.56 300.489 308.736 300.489 312.16V312.288C300.489 315.712 298.489 318 294.473 318H290.745ZM303.314 318V309.12L300.994 310.64V308.432L303.634 306.56H305.906V318H303.314ZM307.965 318V306.56H315.421V308.576H310.541V311.248H314.445V313.136H310.541V315.984H315.677V318H307.965ZM320.728 318.176C318.2 318.176 316.248 317.008 316.248 314.768C316.248 313.376 317.048 312.368 318.36 311.904C317.32 311.472 316.696 310.672 316.696 309.52C316.696 307.536 318.6 306.4 320.744 306.4C322.936 306.4 324.76 307.552 324.76 309.504C324.76 310.656 324.104 311.44 323.096 311.888C324.44 312.352 325.192 313.344 325.192 314.704C325.192 316.944 323.272 318.176 320.728 318.176ZM320.728 316.288C321.816 316.288 322.632 315.648 322.632 314.512C322.632 313.392 321.816 312.768 320.744 312.768C319.688 312.768 318.824 313.392 318.824 314.528C318.824 315.664 319.672 316.288 320.728 316.288ZM320.76 311.184C321.688 311.184 322.36 310.624 322.36 309.68C322.36 308.8 321.656 308.208 320.744 308.208C319.832 308.208 319.112 308.768 319.112 309.696C319.112 310.624 319.864 311.184 320.76 311.184ZM329.011 315.984H330.067C332.371 315.984 333.459 314.688 333.459 312.32V312.192C333.459 309.84 332.451 308.576 330.035 308.576H329.011V315.984ZM326.419 318V306.56H330.163C334.179 306.56 336.163 308.736 336.163 312.16V312.288C336.163 315.712 334.163 318 330.147 318H326.419ZM340.908 318.176C338.092 318.176 336.78 316.64 336.668 314.592H339.052C339.196 315.552 339.58 316.192 340.892 316.192C342.06 316.192 342.684 315.376 342.684 314.16C342.684 312.928 341.98 312.16 340.828 312.16C339.756 312.16 339.1 312.544 338.636 313.072H337.196L337.356 306.56H344.604V308.528H339.292L339.244 311.392C339.692 310.848 340.492 310.336 341.788 310.336C343.868 310.336 345.292 311.76 345.292 314.192C345.292 316.624 343.548 318.176 340.908 318.176Z" fill="#2C7351"/>
</g>
<defs>
<filter id="filter0_d_634_23344" x="0" y="0" width="364" height="350" filterUnits="userSpaceOnUse" color-interpolation-filters="sRGB">
<feFlood flood-opacity="0" result="BackgroundImageFix"/>
<feColorMatrix in="SourceAlpha" type="matrix" values="0 0 0 0 0 0 0 0 0 0 0 0 0 0 0 0 0 0 127 0" result="hardAlpha"/>
<feOffset dy="2"/>
<feGaussianBlur stdDeviation="1"/>
<feComposite in2="hardAlpha" operator="out"/>
<feColorMatrix type="matrix" values="0 0 0 0 1 0 0 0 0 1 0 0 0 0 1 0 0 0 0.25 0"/>
<feBlend mode="normal" in2="BackgroundImageFix" result="effect1_dropShadow_634_23344"/>
<feBlend mode="normal" in="SourceGraphic" in2="effect1_dropShadow_634_23344" result="shape"/>
</filter>
<linearGradient id="paint0_linear_634_23344" x1="32.7966" y1="88.2129" x2="307.029" y2="234.028" gradientUnits="userSpaceOnUse">
<stop stop-color="#1A6642"/>
<stop offset="1" stop-color="#D1E8D5"/>
</linearGradient>
</defs>
</svg>
