<svg width="364" height="350" viewBox="0 0 364 350" fill="none" xmlns="http://www.w3.org/2000/svg">
<g filter="url(#filter0_d_634_23390)">
<rect width="360" height="346" transform="translate(2)" fill="url(#paint0_linear_634_23390)"/>
<path d="M27.84 42.168C30.744 42.168 32.568 39.936 32.568 36.48V36.288C32.568 32.952 30.792 30.672 27.792 30.672C24.816 30.672 23.016 32.856 23.016 36.312V36.504C23.016 40.008 25.032 42.168 27.84 42.168ZM27.768 45.264C22.392 45.264 18.96 41.544 18.96 36.528V36.336C18.96 31.224 22.704 27.6 27.792 27.6C32.952 27.6 36.624 31.08 36.624 36.24V36.432C36.624 41.544 33.12 45.264 27.768 45.264ZM38.1698 45V32.448H41.6498V34.848C42.4418 33.168 43.6658 32.28 45.7058 32.256V35.496C43.1378 35.472 41.6498 36.312 41.6498 38.712V45H38.1698ZM50.1797 45.264C47.8997 45.264 45.9797 44.16 45.9797 41.52C45.9797 38.592 48.6677 37.488 52.5077 37.488H53.9237V36.984C53.9237 35.496 53.4677 34.68 51.8837 34.68C50.5157 34.68 49.8917 35.376 49.7477 36.456H46.4597C46.6757 33.48 49.0277 32.16 52.0997 32.16C55.1717 32.16 57.3557 33.408 57.3557 36.816V45H53.9717V43.488C53.2517 44.496 52.1477 45.264 50.1797 45.264ZM51.2117 42.84C52.7477 42.84 53.9237 42 53.9237 40.608V39.552H52.5797C50.5637 39.552 49.3877 39.984 49.3877 41.328C49.3877 42.24 49.9397 42.84 51.2117 42.84ZM59.3826 45V32.448H62.8626V34.44C63.4866 33.192 64.8546 32.16 66.9426 32.16C69.4146 32.16 71.1666 33.648 71.1666 37.008V45H67.6866V37.512C67.6866 35.808 67.0146 34.992 65.4786 34.992C63.9906 34.992 62.8626 35.904 62.8626 37.752V45H59.3826ZM78.7562 49.632C74.7002 49.632 72.8522 47.856 72.5162 45.264H75.9722C76.1882 46.368 76.9802 47.088 78.7562 47.088C80.8682 47.088 81.9242 45.984 81.9242 44.016V42.12C81.2282 43.344 79.7402 44.448 77.8922 44.448C74.8442 44.448 72.4202 42.168 72.4202 38.448V38.28C72.4202 34.68 74.8202 32.16 77.9402 32.16C79.9802 32.16 81.2042 33.048 81.9242 34.32V32.448H85.3802V44.016C85.3562 47.736 82.8842 49.632 78.7562 49.632ZM78.9242 41.832C80.7482 41.832 82.0202 40.536 82.0202 38.4V38.232C82.0202 36.096 80.8922 34.8 78.9962 34.8C77.0522 34.8 75.9722 36.192 75.9722 38.256V38.448C75.9722 40.536 77.1962 41.832 78.9242 41.832ZM93.27 45.264C89.478 45.264 86.718 42.888 86.718 38.88V38.688C86.718 34.728 89.526 32.16 93.174 32.16C96.414 32.16 99.294 34.056 99.294 38.544V39.504H90.246C90.342 41.592 91.47 42.792 93.366 42.792C94.974 42.792 95.766 42.096 95.982 41.04H99.27C98.862 43.752 96.702 45.264 93.27 45.264ZM90.294 37.368H95.91C95.79 35.472 94.83 34.56 93.174 34.56C91.614 34.56 90.558 35.592 90.294 37.368Z" fill="#EC9C6C"/>
<circle cx="182" cy="177" r="102" fill="#E58248"/>
<circle cx="178.05" cy="228" r="28" fill="white" stroke="#F0AB81" stroke-width="2"/>
<path d="M174.05 181C174.05 196.48 161.721 209 146.55 209C131.378 209 119.05 196.48 119.05 181C119.05 165.52 131.378 153 146.55 153C161.721 153 174.05 165.52 174.05 181Z" fill="white" stroke="#F0AB81" stroke-width="2"/>
<circle cx="144.05" cy="201" r="20" fill="white" stroke="#F0AB81" stroke-width="2"/>
<circle cx="144.05" cy="227" r="20" fill="white" stroke="#F0AB81" stroke-width="2"/>
<path d="M262.05 176C262.05 188.171 252.403 198 240.55 198C228.696 198 219.05 188.171 219.05 176C219.05 163.829 228.696 154 240.55 154C252.403 154 262.05 163.829 262.05 176Z" fill="white" stroke="#F0AB81" stroke-width="2"/>
<circle cx="216.55" cy="197.5" r="31.5" fill="white" stroke="#F0AB81" stroke-width="2"/>
<circle cx="174.55" cy="193.5" r="27.5" fill="white" stroke="#F0AB81" stroke-width="2"/>
<circle cx="154.55" cy="141.5" r="27.5" fill="white" stroke="#F0AB81" stroke-width="2"/>
<path d="M206.05 126.5C206.05 141.672 193.53 154 178.05 154C162.569 154 150.05 141.672 150.05 126.5C150.05 111.328 162.569 99 178.05 99C193.53 99 206.05 111.328 206.05 126.5Z" fill="white" stroke="#F0AB81" stroke-width="2"/>
<path d="M248.05 144C248.05 159.48 235.721 172 220.55 172C205.378 172 193.05 159.48 193.05 144C193.05 128.52 205.378 116 220.55 116C235.721 116 248.05 128.52 248.05 144Z" fill="white" stroke="#F0AB81" stroke-width="2"/>
<path d="M219.05 156.5C219.05 168.907 208.772 179 196.05 179C183.327 179 173.05 168.907 173.05 156.5C173.05 144.093 183.327 134 196.05 134C208.772 134 219.05 144.093 219.05 156.5Z" fill="white" stroke="#F0AB81" stroke-width="2"/>
<circle cx="207.05" cy="128" r="23" fill="white" stroke="#F0AB81" stroke-width="2"/>
<circle cx="131.05" cy="150" r="23" fill="white" stroke="#F0AB81" stroke-width="2"/>
<path d="M191.05 136C191.05 154.212 176.065 169 157.55 169C139.034 169 124.05 154.212 124.05 136C124.05 117.788 139.034 103 157.55 103C176.065 103 191.05 117.788 191.05 136Z" fill="white" stroke="#F0AB81" stroke-width="2"/>
<circle cx="130.55" cy="177.5" r="27.5" fill="white" stroke="#F0AB81" stroke-width="2"/>
<circle cx="206.05" cy="224" r="28" fill="white" stroke="#F0AB81" stroke-width="2"/>
<path d="M212.47 315.984H213.526C215.83 315.984 216.918 314.688 216.918 312.32V312.192C216.918 309.84 215.91 308.576 213.494 308.576H212.47V315.984ZM209.878 318V306.56H213.622C217.638 306.56 219.622 308.736 219.622 312.16V312.288C219.622 315.712 217.622 318 213.606 318H209.878ZM224.576 318.16C222.096 318.16 220.624 316.976 220.368 314.912H222.784C222.944 315.696 223.408 316.192 224.496 316.192C226.016 316.192 226.768 314.992 226.816 312.656C226.288 313.488 225.456 314.048 224.08 314.048C221.872 314.048 220.256 312.672 220.256 310.352C220.256 307.984 221.952 306.384 224.688 306.384C227.84 306.384 229.36 308.512 229.36 311.808V312.32C229.36 316.064 227.648 318.16 224.576 318.16ZM224.656 312.32C225.824 312.32 226.608 311.52 226.608 310.4C226.608 309.072 225.824 308.256 224.656 308.256C223.52 308.256 222.768 309.088 222.768 310.288C222.768 311.488 223.504 312.32 224.656 312.32ZM235.258 318V315.728H229.642V314.784L234.586 306.56H237.77V313.872H239.274V315.728H237.77V318H235.258ZM232.234 313.872H235.306V308.512L232.234 313.872ZM240.318 318V306.56H247.662V308.592H242.91V311.616H246.67V313.568H242.91V318H240.318ZM253.284 316.144C254.9 316.144 255.636 314.912 255.636 312.512V312C255.636 309.696 254.836 308.4 253.252 308.4C251.652 308.4 250.836 309.632 250.836 312V312.544C250.836 314.944 251.684 316.144 253.284 316.144ZM253.22 318.176C250.18 318.176 248.244 316.064 248.244 312.56V312.016C248.244 308.496 250.292 306.4 253.236 306.4C256.18 306.4 258.212 308.416 258.212 311.968V312.496C258.212 316 256.308 318.176 253.22 318.176ZM264.05 316.144C265.666 316.144 266.402 314.912 266.402 312.512V312C266.402 309.696 265.602 308.4 264.018 308.4C262.418 308.4 261.602 309.632 261.602 312V312.544C261.602 314.944 262.45 316.144 264.05 316.144ZM263.986 318.176C260.946 318.176 259.01 316.064 259.01 312.56V312.016C259.01 308.496 261.058 306.4 264.002 306.4C266.946 306.4 268.978 308.416 268.978 311.968V312.496C268.978 316 267.074 318.176 263.986 318.176ZM275.142 318L278.006 313.728L275.334 309.632H277.99L279.558 312.144L281.094 309.632H283.494L280.822 313.552L283.766 318H281.094L279.334 315.184L277.526 318H275.142ZM290.463 318V306.56H297.807V308.592H293.055V311.616H296.815V313.568H293.055V318H290.463ZM298.901 318V306.56H306.245V308.592H301.493V311.616H305.253V313.568H301.493V318H298.901ZM307.34 318V306.56H314.796V308.576H309.916V311.248H313.82V313.136H309.916V315.984H315.052V318H307.34ZM320.103 318.176C317.575 318.176 315.623 317.008 315.623 314.768C315.623 313.376 316.423 312.368 317.735 311.904C316.695 311.472 316.071 310.672 316.071 309.52C316.071 307.536 317.975 306.4 320.119 306.4C322.311 306.4 324.135 307.552 324.135 309.504C324.135 310.656 323.479 311.44 322.471 311.888C323.815 312.352 324.567 313.344 324.567 314.704C324.567 316.944 322.647 318.176 320.103 318.176ZM320.103 316.288C321.191 316.288 322.007 315.648 322.007 314.512C322.007 313.392 321.191 312.768 320.119 312.768C319.063 312.768 318.199 313.392 318.199 314.528C318.199 315.664 319.047 316.288 320.103 316.288ZM320.135 311.184C321.063 311.184 321.735 310.624 321.735 309.68C321.735 308.8 321.031 308.208 320.119 308.208C319.207 308.208 318.487 308.768 318.487 309.696C318.487 310.624 319.239 311.184 320.135 311.184ZM328.386 315.984H329.442C331.746 315.984 332.834 314.688 332.834 312.32V312.192C332.834 309.84 331.826 308.576 329.41 308.576H328.386V315.984ZM325.794 318V306.56H329.538C333.554 306.56 335.538 308.736 335.538 312.16V312.288C335.538 315.712 333.538 318 329.522 318H325.794ZM340.955 318.176C337.499 318.176 336.251 315.84 336.251 312.72V312.432C336.251 308.56 338.347 306.4 341.147 306.4C343.419 306.4 344.859 307.472 345.115 309.568H342.715C342.555 308.816 342.171 308.352 341.179 308.352C339.755 308.352 338.875 309.6 338.811 311.952C339.339 311.104 340.203 310.528 341.579 310.528C343.739 310.528 345.355 311.936 345.355 314.24C345.355 316.592 343.675 318.176 340.955 318.176ZM340.923 316.304C342.059 316.304 342.811 315.472 342.811 314.272C342.811 313.072 342.091 312.24 340.923 312.24C339.771 312.24 338.971 313.056 338.971 314.192C338.971 315.504 339.771 316.304 340.923 316.304Z" fill="#DA5406"/>
</g>
<defs>
<filter id="filter0_d_634_23390" x="0" y="0" width="364" height="350" filterUnits="userSpaceOnUse" color-interpolation-filters="sRGB">
<feFlood flood-opacity="0" result="BackgroundImageFix"/>
<feColorMatrix in="SourceAlpha" type="matrix" values="0 0 0 0 0 0 0 0 0 0 0 0 0 0 0 0 0 0 127 0" result="hardAlpha"/>
<feOffset dy="2"/>
<feGaussianBlur stdDeviation="1"/>
<feComposite in2="hardAlpha" operator="out"/>
<feColorMatrix type="matrix" values="0 0 0 0 1 0 0 0 0 1 0 0 0 0 1 0 0 0 0.25 0"/>
<feBlend mode="normal" in2="BackgroundImageFix" result="effect1_dropShadow_634_23390"/>
<feBlend mode="normal" in="SourceGraphic" in2="effect1_dropShadow_634_23390" result="shape"/>
</filter>
<linearGradient id="paint0_linear_634_23390" x1="32.7966" y1="88.2129" x2="307.029" y2="234.028" gradientUnits="userSpaceOnUse">
<stop stop-color="#D94F00"/>
<stop offset="1" stop-color="#FFE8D6"/>
</linearGradient>
</defs>
</svg>
