<svg width="364" height="350" viewBox="0 0 364 350" fill="none" xmlns="http://www.w3.org/2000/svg">
<g filter="url(#filter0_d_634_23274)">
<rect width="360" height="346" transform="translate(2)" fill="url(#paint0_linear_634_23274)"/>
<path d="M18.504 45L24.144 27.84H29.208L34.776 45H30.72L29.544 41.184H23.328L22.152 45H18.504ZM26.448 31.008L24.168 38.424H28.704L26.448 31.008ZM44.3511 49.272V42.984C43.7031 44.184 42.1671 45.264 40.3191 45.264C37.2711 45.264 34.8711 43.08 34.8711 38.904V38.712C34.8711 34.584 37.2471 32.16 40.3911 32.16C42.4071 32.16 43.6551 33.048 44.3511 34.32V32.448H47.8071V49.272H44.3511ZM41.3511 42.552C43.1751 42.552 44.4471 41.328 44.4471 38.784V38.592C44.4471 36.096 43.3431 34.824 41.4471 34.824C39.5031 34.824 38.4231 36.144 38.4231 38.64V38.832C38.4231 41.328 39.6231 42.552 41.3511 42.552ZM54.1123 45.264C51.6643 45.264 49.8403 43.824 49.8403 40.536V32.448H53.2963V40.056C53.2963 41.76 53.9923 42.576 55.4803 42.576C56.9443 42.576 58.0963 41.664 58.0963 39.816V32.448H61.5523V45H58.0963V43.032C57.4483 44.304 56.1763 45.264 54.1123 45.264ZM67.0556 45.264C64.7756 45.264 62.8556 44.16 62.8556 41.52C62.8556 38.592 65.5436 37.488 69.3836 37.488H70.7996V36.984C70.7996 35.496 70.3436 34.68 68.7596 34.68C67.3916 34.68 66.7676 35.376 66.6236 36.456H63.3356C63.5516 33.48 65.9036 32.16 68.9756 32.16C72.0476 32.16 74.2316 33.408 74.2316 36.816V45H70.8476V43.488C70.1276 44.496 69.0236 45.264 67.0556 45.264ZM68.0876 42.84C69.6236 42.84 70.7996 42 70.7996 40.608V39.552H69.4556C67.4396 39.552 66.2636 39.984 66.2636 41.328C66.2636 42.24 66.8156 42.84 68.0876 42.84Z" fill="#6F96A3"/>
<circle cx="182" cy="177" r="101.5" fill="#789BA6" stroke="#6B939F"/>
<circle cx="178.05" cy="228" r="28" fill="white" stroke="#6B939F" stroke-width="2"/>
<path d="M174.05 181C174.05 196.48 161.721 209 146.55 209C131.378 209 119.05 196.48 119.05 181C119.05 165.52 131.378 153 146.55 153C161.721 153 174.05 165.52 174.05 181Z" fill="white" stroke="#6B939F" stroke-width="2"/>
<circle cx="144.05" cy="201" r="20" fill="white" stroke="#6B939F" stroke-width="2"/>
<circle cx="144.05" cy="227" r="20" fill="white" stroke="#6B939F" stroke-width="2"/>
<path d="M262.05 176C262.05 188.171 252.403 198 240.55 198C228.696 198 219.05 188.171 219.05 176C219.05 163.829 228.696 154 240.55 154C252.403 154 262.05 163.829 262.05 176Z" fill="white" stroke="#6B939F" stroke-width="2"/>
<circle cx="216.55" cy="197.5" r="31.5" fill="white" stroke="#6B939F" stroke-width="2"/>
<circle cx="174.55" cy="193.5" r="27.5" fill="white" stroke="#6B939F" stroke-width="2"/>
<circle cx="154.55" cy="141.5" r="27.5" fill="white" stroke="#6B939F" stroke-width="2"/>
<path d="M206.05 126.5C206.05 141.672 193.53 154 178.05 154C162.569 154 150.05 141.672 150.05 126.5C150.05 111.328 162.569 99 178.05 99C193.53 99 206.05 111.328 206.05 126.5Z" fill="white" stroke="#6B939F" stroke-width="2"/>
<path d="M248.05 144C248.05 159.48 235.721 172 220.55 172C205.378 172 193.05 159.48 193.05 144C193.05 128.52 205.378 116 220.55 116C235.721 116 248.05 128.52 248.05 144Z" fill="white" stroke="#6B939F" stroke-width="2"/>
<path d="M219.05 156.5C219.05 168.907 208.772 179 196.05 179C183.327 179 173.05 168.907 173.05 156.5C173.05 144.093 183.327 134 196.05 134C208.772 134 219.05 144.093 219.05 156.5Z" fill="white" stroke="#6B939F" stroke-width="2"/>
<circle cx="207.05" cy="128" r="23" fill="white" stroke="#6B939F" stroke-width="2"/>
<circle cx="131.05" cy="150" r="23" fill="white" stroke="#6B939F" stroke-width="2"/>
<path d="M191.05 136C191.05 154.212 176.065 169 157.55 169C139.034 169 124.05 154.212 124.05 136C124.05 117.788 139.034 103 157.55 103C176.065 103 191.05 117.788 191.05 136Z" fill="white" stroke="#6B939F" stroke-width="2"/>
<circle cx="130.55" cy="177.5" r="27.5" fill="white" stroke="#6B939F" stroke-width="2"/>
<circle cx="206.05" cy="224" r="28" fill="white" stroke="#6B939F" stroke-width="2"/>
<path d="M209.437 316.144C211.053 316.144 211.789 314.912 211.789 312.512V312C211.789 309.696 210.989 308.4 209.405 308.4C207.805 308.4 206.989 309.632 206.989 312V312.544C206.989 314.944 207.837 316.144 209.437 316.144ZM209.373 318.176C206.333 318.176 204.397 316.064 204.397 312.56V312.016C204.397 308.496 206.445 306.4 209.389 306.4C212.333 306.4 214.365 308.416 214.365 311.968V312.496C214.365 316 212.461 318.176 209.373 318.176ZM214.779 318L218.539 306.56H221.915L225.627 318H222.923L222.139 315.456H217.995L217.211 318H214.779ZM220.075 308.672L218.555 313.616H221.579L220.075 308.672ZM230.327 318.176C227.415 318.176 225.927 316.688 225.831 314.368H228.167C228.263 315.472 228.855 316.272 230.231 316.272C231.527 316.272 232.135 315.648 232.135 314.624C232.135 313.536 231.527 312.976 230.295 312.976H229.399V311.248H230.231C231.431 311.248 231.975 310.704 231.975 309.728C231.975 308.912 231.447 308.304 230.391 308.304C229.303 308.304 228.631 308.96 228.503 310.032H226.215C226.343 307.936 227.831 306.4 230.439 306.4C232.951 306.4 234.423 307.712 234.423 309.504C234.423 310.784 233.671 311.584 232.535 311.984C233.863 312.272 234.759 313.216 234.759 314.672C234.759 316.816 233.111 318.176 230.327 318.176ZM241.219 318.176C237.475 318.176 235.475 315.872 235.475 312.352V312.224C235.475 308.752 237.907 306.384 241.155 306.384C243.907 306.384 245.955 307.728 246.227 310.544H243.571C243.379 309.168 242.611 308.432 241.171 308.432C239.363 308.432 238.211 309.84 238.211 312.208V312.336C238.211 314.704 239.299 316.08 241.187 316.08C242.611 316.08 243.603 315.36 243.811 313.888H246.355C246.067 316.72 244.035 318.176 241.219 318.176ZM252.196 318V315.728H246.58V314.784L251.524 306.56H254.708V313.872H256.212V315.728H254.708V318H252.196ZM249.172 313.872H252.244V308.512L249.172 313.872ZM259.848 315.984H260.904C263.208 315.984 264.296 314.688 264.296 312.32V312.192C264.296 309.84 263.288 308.576 260.872 308.576H259.848V315.984ZM257.256 318V306.56H261C265.016 306.56 267 308.736 267 312.16V312.288C267 315.712 265 318 260.984 318H257.256ZM273.079 318L275.943 313.728L273.271 309.632H275.927L277.495 312.144L279.031 309.632H281.431L278.759 313.552L281.703 318H279.031L277.271 315.184L275.463 318H273.079ZM293.552 318.176C289.808 318.176 287.808 315.872 287.808 312.352V312.224C287.808 308.752 290.24 306.384 293.488 306.384C296.24 306.384 298.288 307.728 298.56 310.544H295.904C295.712 309.168 294.944 308.432 293.504 308.432C291.696 308.432 290.544 309.84 290.544 312.208V312.336C290.544 314.704 291.632 316.08 293.52 316.08C294.944 316.08 295.936 315.36 296.144 313.888H298.688C298.4 316.72 296.368 318.176 293.552 318.176ZM303.457 318.16C300.977 318.16 299.505 316.976 299.249 314.912H301.665C301.825 315.696 302.289 316.192 303.377 316.192C304.897 316.192 305.649 314.992 305.697 312.656C305.169 313.488 304.337 314.048 302.961 314.048C300.753 314.048 299.137 312.672 299.137 310.352C299.137 307.984 300.833 306.384 303.569 306.384C306.721 306.384 308.241 308.512 308.241 311.808V312.32C308.241 316.064 306.529 318.16 303.457 318.16ZM303.537 312.32C304.705 312.32 305.489 311.52 305.489 310.4C305.489 309.072 304.705 308.256 303.537 308.256C302.401 308.256 301.649 309.088 301.649 310.288C301.649 311.488 302.385 312.32 303.537 312.32ZM309.573 318V306.56H317.029V308.576H312.149V311.248H316.053V313.136H312.149V315.984H317.285V318H309.573ZM322.337 318.176C319.809 318.176 317.857 317.008 317.857 314.768C317.857 313.376 318.657 312.368 319.969 311.904C318.929 311.472 318.305 310.672 318.305 309.52C318.305 307.536 320.209 306.4 322.353 306.4C324.545 306.4 326.369 307.552 326.369 309.504C326.369 310.656 325.713 311.44 324.705 311.888C326.049 312.352 326.801 313.344 326.801 314.704C326.801 316.944 324.881 318.176 322.337 318.176ZM322.337 316.288C323.425 316.288 324.241 315.648 324.241 314.512C324.241 313.392 323.425 312.768 322.353 312.768C321.297 312.768 320.433 313.392 320.433 314.528C320.433 315.664 321.281 316.288 322.337 316.288ZM322.369 311.184C323.297 311.184 323.969 310.624 323.969 309.68C323.969 308.8 323.265 308.208 322.353 308.208C321.441 308.208 320.721 308.768 320.721 309.696C320.721 310.624 321.473 311.184 322.369 311.184ZM328.028 318V306.56H335.372V308.592H330.62V311.616H334.38V313.568H330.62V318H328.028ZM340.994 316.144C342.61 316.144 343.346 314.912 343.346 312.512V312C343.346 309.696 342.546 308.4 340.962 308.4C339.362 308.4 338.546 309.632 338.546 312V312.544C338.546 314.944 339.394 316.144 340.994 316.144ZM340.93 318.176C337.89 318.176 335.954 316.064 335.954 312.56V312.016C335.954 308.496 338.002 306.4 340.946 306.4C343.89 306.4 345.922 308.416 345.922 311.968V312.496C345.922 316 344.018 318.176 340.93 318.176Z" fill="#194959"/>
</g>
<defs>
<filter id="filter0_d_634_23274" x="0" y="0" width="364" height="350" filterUnits="userSpaceOnUse" color-interpolation-filters="sRGB">
<feFlood flood-opacity="0" result="BackgroundImageFix"/>
<feColorMatrix in="SourceAlpha" type="matrix" values="0 0 0 0 0 0 0 0 0 0 0 0 0 0 0 0 0 0 127 0" result="hardAlpha"/>
<feOffset dy="2"/>
<feGaussianBlur stdDeviation="1"/>
<feComposite in2="hardAlpha" operator="out"/>
<feColorMatrix type="matrix" values="0 0 0 0 1 0 0 0 0 1 0 0 0 0 1 0 0 0 0.25 0"/>
<feBlend mode="normal" in2="BackgroundImageFix" result="effect1_dropShadow_634_23274"/>
<feBlend mode="normal" in="SourceGraphic" in2="effect1_dropShadow_634_23274" result="shape"/>
</filter>
<linearGradient id="paint0_linear_634_23274" x1="32.7966" y1="88.2129" x2="307.029" y2="234.028" gradientUnits="userSpaceOnUse">
<stop stop-color="#0A3C4D"/>
<stop offset="1" stop-color="#C9E8F0"/>
</linearGradient>
</defs>
</svg>
