<svg width="831" height="461" viewBox="0 0 831 461" fill="none" xmlns="http://www.w3.org/2000/svg">
<g filter="url(#filter0_d_703_291)">
<path fill-rule="evenodd" clip-rule="evenodd" d="M544.245 114.688H673.905C720.754 114.688 758.735 152.668 758.735 199.518V201.482C758.735 248.332 720.754 286.312 673.905 286.312H544.245C515.002 335.238 461.512 368 400.368 368C339.224 368 285.732 335.238 256.488 286.312H126.83C79.9799 286.312 42 248.332 42 201.482V199.518C42 152.668 79.9799 114.688 126.83 114.688H256.488C285.732 65.7615 339.224 33 400.368 33C461.512 33 515.002 65.7615 544.245 114.688Z" fill="#1E90FF"/>
<mask id="mask0_703_291" style="mask-type:luminance" maskUnits="userSpaceOnUse" x="42" y="33" width="717" height="335">
<path fill-rule="evenodd" clip-rule="evenodd" d="M544.245 114.688H673.905C720.754 114.688 758.735 152.668 758.735 199.518V201.482C758.735 248.332 720.754 286.312 673.905 286.312H544.245C515.002 335.238 461.512 368 400.368 368C339.224 368 285.732 335.238 256.488 286.312H126.83C79.9799 286.312 42 248.332 42 201.482V199.518C42 152.668 79.9799 114.688 126.83 114.688H256.488C285.732 65.7615 339.224 33 400.368 33C461.512 33 515.002 65.7615 544.245 114.688Z" fill="white"/>
</mask>
<g mask="url(#mask0_703_291)">
<path d="M544.244 114.688L530.086 123.151L534.889 131.183H544.244V114.688ZM544.244 286.312V269.817H534.889L530.086 277.849L544.244 286.312ZM256.488 286.312L270.647 277.849L265.846 269.817H256.488V286.312ZM256.488 114.688V131.183H265.846L270.647 123.151L256.488 114.688ZM544.244 131.183H673.905V98.1934H544.244V131.183ZM673.905 131.183C711.646 131.183 742.24 161.777 742.24 199.518H775.229C775.229 143.558 729.865 98.1934 673.905 98.1934V131.183ZM742.24 199.518V201.482H775.229V199.518H742.24ZM742.24 201.482C742.24 239.223 711.646 269.817 673.905 269.817V302.807C729.865 302.807 775.229 257.442 775.229 201.482H742.24ZM673.905 269.817H544.244V302.807H673.905V269.817ZM530.086 277.849C503.699 322.001 455.471 351.505 400.367 351.505V384.495C467.552 384.495 526.308 348.476 558.406 294.774L530.086 277.849ZM400.367 351.505C345.265 351.505 297.036 322.001 270.647 277.849L242.33 294.774C274.427 348.476 333.183 384.495 400.367 384.495V351.505ZM256.488 269.817H126.83V302.807H256.488V269.817ZM126.83 269.817C89.0889 269.817 58.4943 239.223 58.4943 201.482H25.5049C25.5049 257.442 70.8697 302.807 126.83 302.807V269.817ZM58.4943 201.482V199.518H25.5049V201.482H58.4943ZM58.4943 199.518C58.4943 161.777 89.0889 131.183 126.83 131.183V98.1934C70.8697 98.1934 25.5049 143.558 25.5049 199.518H58.4943ZM126.83 131.183H256.488V98.1934H126.83V131.183ZM270.647 123.151C297.036 78.9991 345.265 49.4947 400.367 49.4947V16.5053C333.183 16.5053 274.427 52.524 242.33 106.226L270.647 123.151ZM400.367 49.4947C455.471 49.4947 503.699 78.9991 530.086 123.151L558.406 106.226C526.308 52.524 467.552 16.5053 400.367 16.5053V49.4947Z" fill="#B0B7BC"/>
</g>
</g>
<path d="M509.661 228.557L500.989 236.042H477.394L468.95 228.557V171.873L477.394 164.342H500.989L509.661 171.919V182.963H496.426V177.578H482.189V222.807H496.426V217.01H509.661V228.557ZM563.285 228.557L554.75 236.042H530.103L521.659 228.557V171.873L530.103 164.342H554.75L563.285 171.873V228.557ZM550.002 222.807V177.578H534.898V222.807H550.002ZM624.845 236.042H611.567V195.651L600.017 220.296L588.518 195.651V236.042H575.283V164.342H588.518L600.017 188.988L611.567 164.342H624.845V236.042ZM650.125 236.042H636.843V164.342H650.125V236.042ZM689.827 236.042L675.358 198.481V236.042H662.17V164.342H676.364L690.875 201.949V164.342H704.02V235.951L704.067 236.042H689.827ZM728.039 170.609C727.482 172.781 726.767 175.139 725.899 177.683C725.031 180.227 724.069 182.771 723.016 185.315C722.023 187.797 721.029 190.155 720.036 192.389H713.987C714.419 190.651 714.855 188.79 715.287 186.804C715.786 184.819 716.218 182.833 716.591 180.847C717.027 178.8 717.4 176.814 717.711 174.89C718.08 172.967 718.39 171.198 718.641 169.585H727.387L728.039 170.609Z" fill="white"/>
<mask id="mask1_703_291" style="mask-type:luminance" maskUnits="userSpaceOnUse" x="468" y="163" width="261" height="74">
<path d="M728.495 163.78H468.507V236.435H728.495V163.78Z" fill="white"/>
<path d="M509.661 228.557L500.989 236.042H477.394L468.95 228.557V171.873L477.394 164.342H500.989L509.661 171.919V182.963H496.426V177.578H482.189V222.807H496.426V217.01H509.661V228.557ZM563.284 228.557L554.75 236.042H530.102L521.659 228.557V171.873L530.102 164.342H554.75L563.284 171.873V228.557ZM550.002 222.807V177.578H534.898V222.807H550.002ZM624.845 236.042H611.567V195.651L600.016 220.296L588.517 195.651V236.042H575.282V164.342H588.517L600.016 188.988L611.567 164.342H624.845V236.042ZM650.125 236.042H636.843V164.342H650.125V236.042ZM689.826 236.042L675.358 198.481V236.042H662.17V164.342H676.364L690.875 201.949V164.342H704.02V235.951L704.067 236.042H689.826ZM728.039 170.609C727.481 172.781 726.767 175.139 725.899 177.683C725.031 180.227 724.069 182.771 723.016 185.315C722.023 187.797 721.029 190.155 720.035 192.389H713.987C714.419 190.651 714.855 188.79 715.287 186.804C715.786 184.819 716.218 182.833 716.591 180.847C717.027 178.8 717.4 176.814 717.71 174.89C718.079 172.967 718.39 171.198 718.641 169.585H727.387L728.039 170.609Z" fill="black"/>
</mask>
<g mask="url(#mask1_703_291)">
<path d="M509.661 228.557L509.92 228.854L510.054 228.737V228.557H509.661ZM500.989 236.042V236.435H501.139L501.249 236.34L500.989 236.042ZM477.394 236.042L477.135 236.336L477.245 236.435H477.394V236.042ZM468.95 228.557H468.558V228.734L468.691 228.851L468.95 228.557ZM468.95 171.873L468.691 171.58L468.558 171.697V171.873H468.95ZM477.394 164.342V163.95H477.245L477.135 164.049L477.394 164.342ZM500.989 164.342L501.249 164.047L501.139 163.95H500.989V164.342ZM509.661 171.919H510.054V171.74L509.92 171.623L509.661 171.919ZM509.661 182.963V183.356H510.054V182.963H509.661ZM496.426 182.963H496.033V183.356H496.426V182.963ZM496.426 177.578H496.819V177.185H496.426V177.578ZM482.189 177.578V177.185H481.797V177.578H482.189ZM482.189 222.807H481.797V223.199H482.189V222.807ZM496.426 222.807V223.199H496.819V222.807H496.426ZM496.426 217.01V216.618H496.033V217.01H496.426ZM509.661 217.01H510.054V216.618H509.661V217.01ZM509.406 228.26L500.734 235.745L501.249 236.34L509.92 228.854L509.406 228.26ZM500.989 235.649H477.394V236.435H500.989V235.649ZM477.657 235.748L469.213 228.263L468.691 228.851L477.135 236.336L477.657 235.748ZM469.343 228.557V171.873H468.558V228.557H469.343ZM469.213 172.166L477.657 164.635L477.135 164.049L468.691 171.58L469.213 172.166ZM477.394 164.735H500.989V163.95H477.394V164.735ZM500.734 164.638L509.406 172.214L509.92 171.623L501.249 164.047L500.734 164.638ZM509.268 171.919V182.963H510.054V171.919H509.268ZM509.661 182.571H496.426V183.356H509.661V182.571ZM496.819 182.963V177.578H496.033V182.963H496.819ZM496.426 177.185H482.189V177.971H496.426V177.185ZM481.797 177.578V222.807H482.582V177.578H481.797ZM482.189 223.199H496.426V222.414H482.189V223.199ZM496.819 222.807V217.01H496.033V222.807H496.819ZM496.426 217.403H509.661V216.618H496.426V217.403ZM509.268 217.01V228.557H510.054V217.01H509.268ZM563.284 228.557L563.544 228.852L563.677 228.735V228.557H563.284ZM554.75 236.042V236.435H554.896L555.01 236.338L554.75 236.042ZM530.103 236.042L529.843 236.336L529.953 236.435H530.103V236.042ZM521.659 228.557H521.266V228.734L521.4 228.851L521.659 228.557ZM521.659 171.873L521.4 171.58L521.266 171.697V171.873H521.659ZM530.103 164.342V163.95H529.953L529.843 164.049L530.103 164.342ZM554.75 164.342L555.01 164.048L554.9 163.95H554.75V164.342ZM563.284 171.873H563.677V171.696L563.544 171.578L563.284 171.873ZM550.002 222.807V223.199H550.395V222.807H550.002ZM550.002 177.578H550.395V177.185H550.002V177.578ZM534.898 177.578V177.185H534.505V177.578H534.898ZM534.898 222.807H534.505V223.199H534.898V222.807ZM563.025 228.262L554.491 235.747L555.01 236.338L563.544 228.852L563.025 228.262ZM554.75 235.649H530.103V236.435H554.75V235.649ZM530.366 235.748L521.922 228.263L521.4 228.851L529.843 236.336L530.366 235.748ZM522.052 228.557V171.873H521.266V228.557H522.052ZM521.922 172.166L530.366 164.635L529.843 164.049L521.4 171.58L521.922 172.166ZM530.103 164.735H554.75V163.95H530.103V164.735ZM554.491 164.637L563.025 172.167L563.544 171.578L555.01 164.048L554.491 164.637ZM562.892 171.873V228.557H563.677V171.873H562.892ZM550.395 222.807V177.578H549.61V222.807H550.395ZM550.002 177.185H534.898V177.971H550.002V177.185ZM534.505 177.578V222.807H535.291V177.578H534.505ZM534.898 223.199H550.002V222.414H534.898V223.199ZM624.845 236.042V236.435H625.238V236.042H624.845ZM611.567 236.042H611.174V236.435H611.567V236.042ZM611.567 195.651H611.96L611.209 195.484L611.567 195.651ZM600.017 220.296L599.663 220.463L600.017 221.224L600.374 220.463L600.017 220.296ZM588.517 195.651L588.875 195.485L588.125 195.651H588.517ZM588.517 236.042V236.435H588.91V236.042H588.517ZM575.282 236.042H574.89V236.435H575.282V236.042ZM575.282 164.342V163.95H574.89V164.342H575.282ZM588.517 164.342L588.875 164.176L588.769 163.95H588.517V164.342ZM600.017 188.988L599.663 189.154L600.017 189.915L600.374 189.154L600.017 188.988ZM611.567 164.342V163.95H611.316L611.209 164.175L611.567 164.342ZM624.845 164.342H625.238V163.95H624.845V164.342ZM624.845 235.649H611.567V236.435H624.845V235.649ZM611.96 236.042V195.651H611.174V236.042H611.96ZM611.209 195.484L599.663 220.13L600.374 220.463L611.92 195.818L611.209 195.484ZM600.374 220.13L588.875 195.485L588.16 195.817L599.663 220.463L600.374 220.13ZM588.125 195.651V236.042H588.91V195.651H588.125ZM588.517 235.649H575.282V236.435H588.517V235.649ZM575.675 236.042V164.342H574.89V236.042H575.675ZM575.282 164.735H588.517V163.95H575.282V164.735ZM588.16 164.509L599.663 189.154L600.374 188.822L588.875 164.176L588.16 164.509ZM600.374 189.154L611.92 164.509L611.209 164.175L599.663 188.821L600.374 189.154ZM611.567 164.735H624.845V163.95H611.567V164.735ZM624.452 164.342V236.042H625.238V164.342H624.452ZM650.125 236.042V236.435H650.518V236.042H650.125ZM636.843 236.042H636.45V236.435H636.843V236.042ZM636.843 164.342V163.95H636.45V164.342H636.843ZM650.125 164.342H650.518V163.95H650.125V164.342ZM650.125 235.649H636.843V236.435H650.125V235.649ZM637.236 236.042V164.342H636.45V236.042H637.236ZM636.843 164.735H650.125V163.95H636.843V164.735ZM649.733 164.342V236.042H650.518V164.342H649.733ZM689.827 236.042L689.461 236.183L689.556 236.435H689.827V236.042ZM675.358 198.481L675.724 198.34L674.966 198.481H675.358ZM675.358 236.042V236.435H675.751V236.042H675.358ZM662.17 236.042H661.778V236.435H662.17V236.042ZM662.17 164.342V163.95H661.778V164.342H662.17ZM676.364 164.342L676.729 164.201L676.631 163.95H676.364V164.342ZM690.875 201.949L690.51 202.091L691.268 201.949H690.875ZM690.875 164.342V163.95H690.482V164.342H690.875ZM704.02 164.342H704.413V163.95H704.02V164.342ZM704.02 235.951H703.627V236.044L703.67 236.127L704.02 235.951ZM704.067 236.042V236.435H704.703L704.416 235.867L704.067 236.042ZM690.192 235.901L675.724 198.34L674.993 198.622L689.461 236.183L690.192 235.901ZM674.966 198.481V236.042H675.751V198.481H674.966ZM675.358 235.649H662.17V236.435H675.358V235.649ZM662.563 236.042V164.342H661.778V236.042H662.563ZM662.17 164.735H676.364V163.95H662.17V164.735ZM675.994 164.484L690.51 202.091L691.244 201.808L676.729 164.201L675.994 164.484ZM691.268 201.949V164.342H690.482V201.949H691.268ZM690.875 164.735H704.02V163.95H690.875V164.735ZM703.627 164.342V235.951H704.413V164.342H703.627ZM703.67 236.127L703.713 236.218L704.416 235.867L704.373 235.775L703.67 236.127ZM704.067 235.649H689.827V236.435H704.067V235.649ZM728.039 170.609L728.42 170.707L728.463 170.542L728.373 170.398L728.039 170.609ZM723.016 185.315L722.651 185.165V185.169L723.016 185.315ZM720.035 192.389V192.782H720.291L720.397 192.548L720.035 192.389ZM713.987 192.389L713.606 192.293L713.485 192.782H713.987V192.389ZM715.287 186.804L714.906 186.709V186.715V186.72L715.287 186.804ZM716.591 180.847L716.206 180.766V180.77V180.775L716.591 180.847ZM717.71 174.89L717.322 174.816V174.822V174.828L717.71 174.89ZM718.641 169.585V169.192H718.303L718.252 169.525L718.641 169.585ZM727.387 169.585L727.721 169.374L727.603 169.192H727.387V169.585ZM727.662 170.511C727.105 172.671 726.394 175.02 725.53 177.556L726.272 177.81C727.144 175.258 727.859 172.89 728.42 170.707L727.662 170.511ZM725.53 177.556C724.662 180.092 723.704 182.628 722.651 185.165L723.378 185.465C724.434 182.914 725.4 180.362 726.272 177.81L725.53 177.556ZM722.651 185.169C721.657 187.647 720.668 190 719.678 192.229L720.397 192.548C721.39 190.31 722.384 187.947 723.378 185.461L722.651 185.169ZM720.035 191.996H713.987V192.782H720.035V191.996ZM714.368 192.484C714.804 190.743 715.236 188.877 715.672 186.888L714.906 186.72C714.47 188.703 714.038 190.56 713.606 192.293L714.368 192.484ZM715.668 186.9C716.167 184.906 716.603 182.913 716.98 180.92L716.206 180.775C715.837 182.753 715.401 184.731 714.906 186.709L715.668 186.9ZM716.976 180.929C717.412 178.875 717.785 176.883 718.095 174.953L717.322 174.828C717.011 176.744 716.642 178.724 716.206 180.766L716.976 180.929ZM718.095 174.965C718.468 173.037 718.779 171.264 719.026 169.645L718.252 169.525C718.005 171.133 717.695 172.896 717.322 174.816L718.095 174.965ZM718.641 169.978H727.387V169.192H718.641V169.978ZM727.057 169.796L727.709 170.82L728.373 170.398L727.721 169.374L727.057 169.796Z" fill="#B0B7BC"/>
</g>
<path d="M138.076 180.031H124.6V239.97H110.984V180.031H97.5088V166.462H138.076V180.031ZM202.538 239.97H188.969V210.024H173.575V239.97H160.006V166.462H173.575V196.408H188.969V166.462H202.538V239.97ZM271.445 239.97H256.659L247.956 219.522L239.207 239.97H224.468L240.564 202.163L225.31 166.462H240.049L247.956 184.897L255.864 166.462H270.65L255.349 202.163L271.445 239.97Z" fill="white"/>
<mask id="mask2_703_291" style="mask-type:luminance" maskUnits="userSpaceOnUse" x="96" y="165" width="177" height="76">
<path d="M272.141 165.743H96.9824V240.362H272.141V165.743Z" fill="white"/>
<path d="M138.076 180.031H124.6V239.97H110.984V180.031H97.5088V166.462H138.076V180.031ZM202.538 239.97H188.969V210.024H173.575V239.97H160.006V166.462H173.575V196.408H188.969V166.462H202.538V239.97ZM271.445 239.97H256.659L247.956 219.522L239.207 239.97H224.468L240.564 202.163L225.31 166.462H240.049L247.956 184.897L255.864 166.462H270.65L255.349 202.163L271.445 239.97Z" fill="black"/>
</mask>
<g mask="url(#mask2_703_291)">
<path d="M138.076 180.031V180.424H138.469V180.031H138.076ZM124.6 180.031V179.639H124.208V180.031H124.6ZM124.6 239.97V240.362H124.993V239.97H124.6ZM110.984 239.97H110.592V240.362H110.984V239.97ZM110.984 180.031H111.377V179.639H110.984V180.031ZM97.5089 180.031H97.1162V180.424H97.5089V180.031ZM97.5089 166.462V166.069H97.1162V166.462H97.5089ZM138.076 166.462H138.469V166.069H138.076V166.462ZM138.076 179.639H124.6V180.424H138.076V179.639ZM124.208 180.031V239.97H124.993V180.031H124.208ZM124.6 239.577H110.984V240.362H124.6V239.577ZM111.377 239.97V180.031H110.592V239.97H111.377ZM110.984 179.639H97.5089V180.424H110.984V179.639ZM97.9017 180.031V166.462H97.1162V180.031H97.9017ZM97.5089 166.855H138.076V166.069H97.5089V166.855ZM137.683 166.462V180.031H138.469V166.462H137.683ZM202.538 239.97V240.362H202.931V239.97H202.538ZM188.969 239.97H188.576V240.362H188.969V239.97ZM188.969 210.024H189.362V209.631H188.969V210.024ZM173.575 210.024V209.631H173.182V210.024H173.575ZM173.575 239.97V240.362H173.967V239.97H173.575ZM160.006 239.97H159.613V240.362H160.006V239.97ZM160.006 166.462V166.069H159.613V166.462H160.006ZM173.575 166.462H173.967V166.069H173.575V166.462ZM173.575 196.408H173.182V196.8H173.575V196.408ZM188.969 196.408V196.8H189.362V196.408H188.969ZM188.969 166.462V166.069H188.576V166.462H188.969ZM202.538 166.462H202.931V166.069H202.538V166.462ZM202.538 239.577H188.969V240.362H202.538V239.577ZM189.362 239.97V210.024H188.576V239.97H189.362ZM188.969 209.631H173.575V210.416H188.969V209.631ZM173.182 210.024V239.97H173.967V210.024H173.182ZM173.575 239.577H160.006V240.362H173.575V239.577ZM160.399 239.97V166.462H159.613V239.97H160.399ZM160.006 166.855H173.575V166.069H160.006V166.855ZM173.182 166.462V196.408H173.967V166.462H173.182ZM173.575 196.8H188.969V196.015H173.575V196.8ZM189.362 196.408V166.462H188.576V196.408H189.362ZM188.969 166.855H202.538V166.069H188.969V166.855ZM202.145 166.462V239.97H202.931V166.462H202.145ZM271.445 239.97V240.362H272.039L271.807 239.816L271.445 239.97ZM256.659 239.97L256.298 240.124L256.4 240.362H256.659V239.97ZM247.957 219.522L248.318 219.368L247.957 218.522L247.595 219.368L247.957 219.522ZM239.207 239.97V240.362H239.466L239.568 240.124L239.207 239.97ZM224.468 239.97L224.106 239.816L223.874 240.362H224.468V239.97ZM240.564 202.163L240.925 202.317L240.991 202.163L240.925 202.009L240.564 202.163ZM225.31 166.462V166.069H224.715L224.949 166.616L225.31 166.462ZM240.049 166.462L240.41 166.307L240.308 166.069H240.049V166.462ZM247.957 184.897L247.596 185.052L247.957 185.894L248.317 185.052L247.957 184.897ZM255.864 166.462V166.069H255.605L255.503 166.307L255.864 166.462ZM270.65 166.462L271.011 166.617L271.246 166.069H270.65V166.462ZM255.349 202.163L254.988 202.008L254.922 202.162L254.988 202.317L255.349 202.163ZM271.445 239.577H256.659V240.362H271.445V239.577ZM257.021 239.816L248.318 219.368L247.595 219.676L256.298 240.124L257.021 239.816ZM247.595 219.368L238.846 239.815L239.568 240.124L248.317 219.677L247.595 219.368ZM239.207 239.577H224.468V240.362H239.207V239.577ZM224.829 240.124L240.925 202.317L240.202 202.009L224.106 239.816L224.829 240.124ZM240.925 202.009L225.671 166.308L224.949 166.616L240.202 202.317L240.925 202.009ZM225.31 166.855H240.049V166.069H225.31V166.855ZM239.688 166.617L247.596 185.052L248.317 184.742L240.41 166.307L239.688 166.617ZM248.317 185.052L256.225 166.617L255.503 166.307L247.596 184.742L248.317 185.052ZM255.864 166.855H270.65V166.069H255.864V166.855ZM270.289 166.307L254.988 202.008L255.71 202.318L271.011 166.617L270.289 166.307ZM254.988 202.317L271.084 240.124L271.807 239.816L255.711 202.009L254.988 202.317Z" fill="#B0B7BC"/>
</g>
<path d="M440.073 185.694H446.671V188.208L452.954 197.005V257.957H447.299L452.954 266.125V318.28H363.412L356.814 308.855H355.243V257.957H298.689L292.091 248.531H290.521V185.694L311.257 157.103C319.216 145.793 326.128 136.053 331.993 127.884C337.858 119.715 343.094 112.698 347.702 106.834L355.557 96.1512L358.699 92.0668L368.753 77.3001H433.789V79.8136L440.073 88.6108V185.694ZM430.019 270.524V293.145H371.894V270.524H384.776V232.822H306.858V190.407L377.236 93.0094H417.137V201.403H430.019V232.822H417.137V270.524H430.019ZM384.776 201.403V131.026L339.219 201.403H384.776ZM431.275 257.328V246.018H444.157V188.208H431.275V79.8136H370.324C367.81 83.7932 364.773 88.0873 361.212 92.6952C357.651 97.3031 353.777 102.54 349.587 108.404C343.513 116.364 336.077 126.522 327.28 138.88C318.483 151.239 307.067 167.157 293.034 186.637V246.018H370.638V257.328H357.756V306.341H444.157V257.328H431.275ZM363.726 188.208L370.638 178.154V188.208H363.726Z" fill="#B0B7BC"/>
<mask id="mask3_703_291" style="mask-type:luminance" maskUnits="userSpaceOnUse" x="289" y="76" width="165" height="243">
<path d="M453.583 76.5932H289.813V318.909H453.583V76.5932Z" fill="white"/>
<path d="M440.073 185.694H446.671V188.208L452.954 197.005V257.957H447.299L452.954 266.125V318.28H363.412L356.814 308.855H355.243V257.957H298.689L292.091 248.531H290.521V185.694L311.257 157.103C319.216 145.792 326.128 136.053 331.993 127.884C337.858 119.715 343.094 112.698 347.702 106.834L355.557 96.1512L358.699 92.0668L368.753 77.3001H433.789V79.8136L440.073 88.6108V185.694ZM430.019 270.524V293.145H371.894V270.524H384.776V232.822H306.858V190.407L377.236 93.0094H417.137V201.403H430.019V232.822H417.137V270.524H430.019ZM384.776 201.403V131.026L339.219 201.403H384.776ZM431.275 257.328V246.018H444.157V188.208H431.275V79.8136H370.324C367.81 83.7931 364.773 88.0873 361.212 92.6952C357.651 97.3031 353.777 102.54 349.587 108.404C343.513 116.364 336.077 126.522 327.28 138.88C318.483 151.239 307.067 167.157 293.034 186.637V246.018H370.638V257.328H357.756V306.341H444.157V257.328H431.275ZM363.726 188.208L370.638 178.154V188.208H363.726Z" fill="black"/>
</mask>
<g mask="url(#mask3_703_291)">
<path d="M440.073 185.694H439.68V186.087H440.073V185.694ZM446.671 185.694H447.063V185.301H446.671V185.694ZM446.671 188.208H446.278V188.333L446.353 188.436L446.671 188.208ZM452.954 197.005H453.347V196.879L453.273 196.776L452.954 197.005ZM452.954 257.957V258.349H453.347V257.957H452.954ZM447.299 257.957V257.564H446.549L446.977 258.18L447.299 257.957ZM452.954 266.125H453.347V266.003L453.276 265.902L452.954 266.125ZM452.954 318.28V318.673H453.347V318.28H452.954ZM363.412 318.28L363.09 318.505L363.207 318.673H363.412V318.28ZM356.814 308.855L357.135 308.63L357.018 308.462H356.814V308.855ZM355.243 308.855H354.85V309.247H355.243V308.855ZM355.243 257.957H355.636V257.564H355.243V257.957ZM298.689 257.957L298.368 258.182L298.485 258.349H298.689V257.957ZM292.092 248.531L292.413 248.306L292.296 248.138H292.092V248.531ZM290.521 248.531H290.128V248.924H290.521V248.531ZM290.521 185.694L290.203 185.463L290.128 185.567V185.694H290.521ZM311.257 157.103L311.575 157.334L311.577 157.331L311.578 157.329L311.257 157.103ZM347.702 106.834L348.011 107.076L348.015 107.071L348.019 107.066L347.702 106.834ZM355.557 96.1512L355.246 95.9117L355.243 95.9152L355.24 95.9187L355.557 96.1512ZM358.699 92.0668L359.01 92.3064L359.017 92.2973L359.024 92.2879L358.699 92.0668ZM368.753 77.3001V76.9074H368.545L368.428 77.079L368.753 77.3001ZM433.789 77.3001H434.182V76.9074H433.789V77.3001ZM433.789 79.8136H433.396V79.9393L433.471 80.0418L433.789 79.8136ZM440.073 88.6108H440.466V88.4851L440.391 88.3826L440.073 88.6108ZM430.019 270.524H430.412V270.131H430.019V270.524ZM430.019 293.145V293.538H430.412V293.145H430.019ZM371.895 293.145H371.502V293.538H371.895V293.145ZM371.895 270.524V270.131H371.502V270.524H371.895ZM384.776 270.524V270.917H385.169V270.524H384.776ZM384.776 232.822H385.169V232.429H384.776V232.822ZM306.858 232.822H306.466V233.215H306.858V232.822ZM306.858 190.407L306.54 190.177L306.466 190.28V190.407H306.858ZM377.236 93.0094V92.6166H377.035L376.917 92.7792L377.236 93.0094ZM417.137 93.0094H417.53V92.6166H417.137V93.0094ZM417.137 201.403H416.745V201.796H417.137V201.403ZM430.019 201.403H430.412V201.011H430.019V201.403ZM430.019 232.822V233.215H430.412V232.822H430.019ZM417.137 232.822V232.429H416.745V232.822H417.137ZM417.137 270.524H416.745V270.917H417.137V270.524ZM384.776 201.403V201.796H385.169V201.403H384.776ZM384.776 131.026H385.169V129.696L384.447 130.813L384.776 131.026ZM339.219 201.403L338.89 201.19L338.497 201.796H339.219V201.403ZM431.276 257.328H430.883V257.721H431.276V257.328ZM431.276 246.018V245.625H430.883V246.018H431.276ZM444.157 246.018V246.41H444.55V246.018H444.157ZM444.157 188.208H444.55V187.815H444.157V188.208ZM431.276 188.208H430.883V188.6H431.276V188.208ZM431.276 79.8136H431.668V79.4209H431.276V79.8136ZM370.324 79.8136V79.4209H370.107L369.992 79.6039L370.324 79.8136ZM349.587 108.404L349.9 108.643L349.904 108.638L349.907 108.633L349.587 108.404ZM293.034 186.637L292.716 186.407L292.641 186.51V186.637H293.034ZM293.034 246.018H292.641V246.41H293.034V246.018ZM370.638 246.018H371.031V245.625H370.638V246.018ZM370.638 257.328V257.721H371.031V257.328H370.638ZM357.756 257.328V256.936H357.364V257.328H357.756ZM357.756 306.341H357.364V306.734H357.756V306.341ZM444.157 306.341V306.734H444.55V306.341H444.157ZM444.157 257.328H444.55V256.936H444.157V257.328ZM363.726 188.208L363.402 187.985L362.979 188.6H363.726V188.208ZM370.638 178.154H371.031V176.889L370.314 177.931L370.638 178.154ZM370.638 188.208V188.6H371.031V188.208H370.638ZM440.073 186.087H446.671V185.301H440.073V186.087ZM446.278 185.694V188.208H447.063V185.694H446.278ZM446.353 188.436L452.636 197.233L453.273 196.776L446.989 187.979L446.353 188.436ZM452.562 197.005V257.957H453.347V197.005H452.562ZM452.954 257.564H447.299V258.349H452.954V257.564ZM446.977 258.18L452.632 266.349L453.276 265.902L447.621 257.733L446.977 258.18ZM452.562 266.125V318.28H453.347V266.125H452.562ZM452.954 317.887H363.412V318.673H452.954V317.887ZM363.733 318.055L357.135 308.63L356.492 309.08L363.09 318.505L363.733 318.055ZM356.814 308.462H355.243V309.247H356.814V308.462ZM355.636 308.855V257.957H354.85V308.855H355.636ZM355.243 257.564H298.689V258.349H355.243V257.564ZM299.011 257.732L292.413 248.306L291.77 248.756L298.368 258.182L299.011 257.732ZM292.092 248.138H290.521V248.924H292.092V248.138ZM290.913 248.531V185.694H290.128V248.531H290.913ZM290.839 185.925L311.575 157.334L310.939 156.873L290.203 185.463L290.839 185.925ZM311.578 157.329C319.537 146.019 326.448 136.281 332.312 128.113L331.674 127.655C325.808 135.825 318.896 145.566 310.936 156.877L311.578 157.329ZM332.312 128.113C338.175 119.947 343.407 112.935 348.011 107.076L347.394 106.591C342.781 112.461 337.541 119.483 331.674 127.655L332.312 128.113ZM348.019 107.066L355.874 96.3837L355.24 95.9187L347.386 106.601L348.019 107.066ZM355.868 96.3908L359.01 92.3064L358.387 91.8272L355.246 95.9117L355.868 96.3908ZM359.024 92.2879L369.078 77.5212L368.428 77.079L358.374 91.8457L359.024 92.2879ZM368.753 77.6928H433.789V76.9074H368.753V77.6928ZM433.396 77.3001V79.8136H434.182V77.3001H433.396ZM433.471 80.0418L439.755 88.8389L440.391 88.3826L434.107 79.5854L433.471 80.0418ZM439.68 88.6108V185.694H440.466V88.6108H439.68ZM429.626 270.524V293.145H430.412V270.524H429.626ZM430.019 292.753H371.895V293.538H430.019V292.753ZM372.287 293.145V270.524H371.502V293.145H372.287ZM371.895 270.917H384.776V270.131H371.895V270.917ZM385.169 270.524V232.822H384.383V270.524H385.169ZM384.776 232.429H306.858V233.215H384.776V232.429ZM307.251 232.822V190.407H306.466V232.822H307.251ZM307.177 190.637L377.554 93.2395L376.917 92.7792L306.54 190.177L307.177 190.637ZM377.236 93.4021H417.137V92.6166H377.236V93.4021ZM416.745 93.0094V201.403H417.53V93.0094H416.745ZM417.137 201.796H430.019V201.011H417.137V201.796ZM429.626 201.403V232.822H430.412V201.403H429.626ZM430.019 232.429H417.137V233.215H430.019V232.429ZM416.745 232.822V270.524H417.53V232.822H416.745ZM417.137 270.917H430.019V270.131H417.137V270.917ZM385.169 201.403V131.026H384.383V201.403H385.169ZM384.447 130.813L338.89 201.19L339.549 201.617L385.106 131.239L384.447 130.813ZM339.219 201.796H384.776V201.011H339.219V201.796ZM431.668 257.328V246.018H430.883V257.328H431.668ZM431.276 246.41H444.157V245.625H431.276V246.41ZM444.55 246.018V188.208H443.765V246.018H444.55ZM444.157 187.815H431.276V188.6H444.157V187.815ZM431.668 188.208V79.8136H430.883V188.208H431.668ZM431.276 79.4209H370.324V80.2063H431.276V79.4209ZM369.992 79.6039C367.486 83.5708 364.456 87.8548 360.902 92.4552L361.523 92.9351C365.09 88.3198 368.134 84.0154 370.656 80.0233L369.992 79.6039ZM360.902 92.4552C357.337 97.0679 353.459 102.308 349.268 108.176L349.907 108.633C354.094 102.771 357.966 97.5387 361.523 92.9351L360.902 92.4552ZM349.275 108.166C343.197 116.13 335.759 126.293 326.96 138.653L327.6 139.108C336.396 126.752 343.829 116.597 349.9 108.643L349.275 108.166ZM326.96 138.653C318.164 151.01 306.749 166.928 292.716 186.407L293.353 186.866C307.387 167.386 318.802 151.467 327.6 139.108L326.96 138.653ZM292.641 186.637V246.018H293.427V186.637H292.641ZM293.034 246.41H370.638V245.625H293.034V246.41ZM370.245 246.018V257.328H371.031V246.018H370.245ZM370.638 256.936H357.756V257.721H370.638V256.936ZM357.364 257.328V306.341H358.149V257.328H357.364ZM357.756 306.734H444.157V305.948H357.756V306.734ZM444.55 306.341V257.328H443.765V306.341H444.55ZM444.157 256.936H431.276V257.721H444.157V256.936ZM364.049 188.43L370.962 178.376L370.314 177.931L363.402 187.985L364.049 188.43ZM370.245 178.154V188.208H371.031V178.154H370.245ZM370.638 187.815H363.726V188.6H370.638V187.815Z" fill="#B0B7BC"/>
</g>
<defs>
<filter id="filter0_d_703_291" x="8" y="20" width="822.735" height="441" filterUnits="userSpaceOnUse" color-interpolation-filters="sRGB">
<feFlood flood-opacity="0" result="BackgroundImageFix"/>
<feColorMatrix in="SourceAlpha" type="matrix" values="0 0 0 0 0 0 0 0 0 0 0 0 0 0 0 0 0 0 127 0" result="hardAlpha"/>
<feOffset dx="19" dy="40"/>
<feGaussianBlur stdDeviation="26.5"/>
<feComposite in2="hardAlpha" operator="out"/>
<feColorMatrix type="matrix" values="0 0 0 0 0 0 0 0 0 0 0 0 0 0 0 0 0 0 0.25 0"/>
<feBlend mode="normal" in2="BackgroundImageFix" result="effect1_dropShadow_703_291"/>
<feBlend mode="normal" in="SourceGraphic" in2="effect1_dropShadow_703_291" result="shape"/>
</filter>
</defs>
</svg>
