<svg width="64" height="64" viewBox="0 0 64 64" fill="none" xmlns="http://www.w3.org/2000/svg">
<rect x="1" y="1" width="62" height="62" rx="5" stroke="#2176AE" stroke-width="2"/>
<path d="M18.6016 40.2607C19.6865 40.2607 20.5781 40.1479 21.2764 39.9224C22.5225 39.5034 23.543 38.6978 24.3379 37.5054C24.9717 36.5493 25.4282 35.3247 25.7075 33.8315C25.8687 32.9399 25.9492 32.1128 25.9492 31.3501C25.9492 28.4175 25.3638 26.1401 24.1929 24.5181C23.0327 22.896 21.1582 22.085 18.5693 22.085H12.8813V40.2607H18.6016ZM9.65869 19.3296H19.2461C22.501 19.3296 25.0254 20.4844 26.8193 22.7939C28.4199 24.8779 29.2202 27.5474 29.2202 30.8022C29.2202 33.3159 28.7476 35.5879 27.8022 37.6182C26.1372 41.2061 23.2744 43 19.2139 43H9.65869V19.3296ZM32.3146 25.7427H35.1828V28.1919C35.8703 27.3433 36.4933 26.7256 37.0519 26.3389C38.008 25.6836 39.0929 25.356 40.3068 25.356C41.6818 25.356 42.7882 25.6943 43.6261 26.3711C44.0988 26.7578 44.5285 27.3271 44.9152 28.0791C45.5597 27.1553 46.3171 26.4731 47.1872 26.0327C48.0573 25.5815 49.0348 25.356 50.1198 25.356C52.4401 25.356 54.0192 26.1938 54.8571 27.8696C55.3083 28.772 55.5338 29.9858 55.5338 31.5112V43H52.5207V31.0117C52.5207 29.8623 52.2306 29.0728 51.6505 28.6431C51.0812 28.2134 50.383 27.9985 49.5558 27.9985C48.4171 27.9985 47.4342 28.3799 46.6071 29.1426C45.7907 29.9053 45.3825 31.1782 45.3825 32.9614V43H42.4338V31.7368C42.4338 30.5659 42.2941 29.7119 42.0148 29.1748C41.5744 28.3691 40.7526 27.9663 39.5495 27.9663C38.4538 27.9663 37.4547 28.3906 36.5524 29.2393C35.6608 30.0879 35.215 31.624 35.215 33.8477V43H32.3146V25.7427Z" fill="#2176AE"/>
</svg>
