<svg width="364" height="350" viewBox="0 0 364 350" fill="none" xmlns="http://www.w3.org/2000/svg">
<g filter="url(#filter0_d_634_23231)">
<rect width="360" height="346" transform="translate(2)" fill="url(#paint0_linear_634_23231)"/>
<path d="M19.848 45V27.84H25.992C30.048 27.84 32.616 29.496 32.616 33.048V33.144C32.616 35.736 31.104 37.104 29.088 37.704L33.624 45H29.496L25.392 38.376H23.712V45H19.848ZM23.712 35.736H25.896C27.84 35.736 28.824 34.92 28.824 33.264V33.168C28.824 31.416 27.768 30.816 25.896 30.816H23.712V35.736ZM40.0163 45.264C36.2242 45.264 33.4642 42.888 33.4642 38.88V38.688C33.4642 34.728 36.2723 32.16 39.9203 32.16C43.1603 32.16 46.0403 34.056 46.0403 38.544V39.504H36.9923C37.0883 41.592 38.2163 42.792 40.1123 42.792C41.7203 42.792 42.5123 42.096 42.7283 41.04H46.0163C45.6083 43.752 43.4483 45.264 40.0163 45.264ZM37.0403 37.368H42.6563C42.5363 35.472 41.5763 34.56 39.9203 34.56C38.3603 34.56 37.3043 35.592 37.0403 37.368ZM52.0622 45.264C49.0142 45.264 46.6142 43.08 46.6142 38.904V38.712C46.6142 34.584 48.9902 32.16 52.1342 32.16C54.1502 32.16 55.3982 33.048 56.0942 34.32V26.76H59.5502V45H56.0942V42.912C55.4462 44.184 53.9102 45.264 52.0622 45.264ZM53.0942 42.552C54.9182 42.552 56.1902 41.328 56.1902 38.784V38.592C56.1902 36.096 55.0862 34.824 53.1902 34.824C51.2462 34.824 50.1662 36.144 50.1662 38.64V38.832C50.1662 41.328 51.3662 42.552 53.0942 42.552Z" fill="#BD808B"/>
<path d="M284 177C284 233.333 238.333 279 182 279C125.667 279 80 233.333 80 177C80 120.667 125.667 75 182 75C238.333 75 284 120.667 284 177Z" fill="#9B5C66"/>
<circle cx="178.05" cy="228" r="28" fill="white" stroke="#AB6672" stroke-width="2"/>
<path d="M174.05 181C174.05 196.48 161.721 209 146.55 209C131.378 209 119.05 196.48 119.05 181C119.05 165.52 131.378 153 146.55 153C161.721 153 174.05 165.52 174.05 181Z" fill="white" stroke="#AB6672" stroke-width="2"/>
<circle cx="144.05" cy="201" r="20" fill="white" stroke="#AB6672" stroke-width="2"/>
<circle cx="144.05" cy="227" r="20" fill="white" stroke="#AB6672" stroke-width="2"/>
<path d="M262.05 176C262.05 188.171 252.403 198 240.55 198C228.696 198 219.05 188.171 219.05 176C219.05 163.829 228.696 154 240.55 154C252.403 154 262.05 163.829 262.05 176Z" fill="white" stroke="#AB6672" stroke-width="2"/>
<circle cx="216.55" cy="197.5" r="31.5" fill="white" stroke="#AB6672" stroke-width="2"/>
<circle cx="174.55" cy="193.5" r="27.5" fill="white" stroke="#AB6672" stroke-width="2"/>
<circle cx="154.55" cy="141.5" r="27.5" fill="white" stroke="#AB6672" stroke-width="2"/>
<path d="M206.05 126.5C206.05 141.672 193.53 154 178.05 154C162.569 154 150.05 141.672 150.05 126.5C150.05 111.328 162.569 99 178.05 99C193.53 99 206.05 111.328 206.05 126.5Z" fill="white" stroke="#AB6672" stroke-width="2"/>
<path d="M248.05 144C248.05 159.48 235.721 172 220.55 172C205.378 172 193.05 159.48 193.05 144C193.05 128.52 205.378 116 220.55 116C235.721 116 248.05 128.52 248.05 144Z" fill="white" stroke="#AB6672" stroke-width="2"/>
<path d="M219.05 156.5C219.05 168.907 208.772 179 196.05 179C183.327 179 173.05 168.907 173.05 156.5C173.05 144.093 183.327 134 196.05 134C208.772 134 219.05 144.093 219.05 156.5Z" fill="white" stroke="#AB6672" stroke-width="2"/>
<circle cx="207.05" cy="128" r="23" fill="white" stroke="#AB6672" stroke-width="2"/>
<circle cx="131.05" cy="150" r="23" fill="white" stroke="#AB6672" stroke-width="2"/>
<path d="M191.05 136C191.05 154.212 176.065 169 157.55 169C139.034 169 124.05 154.212 124.05 136C124.05 117.788 139.034 103 157.55 103C176.065 103 191.05 117.788 191.05 136Z" fill="white" stroke="#AB6672" stroke-width="2"/>
<circle cx="130.55" cy="177.5" r="27.5" fill="white" stroke="#AB6672" stroke-width="2"/>
<circle cx="206.05" cy="224" r="28" fill="white" stroke="#AB6672" stroke-width="2"/>
<path d="M214.114 318L217.602 308.656H212.562V306.56H220.85V306.848L216.754 318H214.114ZM220.748 318L224.508 306.56H227.884L231.596 318H228.892L228.108 315.456H223.964L223.18 318H220.748ZM226.044 308.672L224.524 313.616H227.548L226.044 308.672ZM234.12 318V309.12L231.8 310.64V308.432L234.44 306.56H236.712V318H234.12ZM243.922 318.176C240.178 318.176 238.178 315.872 238.178 312.352V312.224C238.178 308.752 240.61 306.384 243.858 306.384C246.61 306.384 248.658 307.728 248.93 310.544H246.274C246.082 309.168 245.314 308.432 243.874 308.432C242.066 308.432 240.914 309.84 240.914 312.208V312.336C240.914 314.704 242.002 316.08 243.89 316.08C245.314 316.08 246.306 315.36 246.514 313.888H249.058C248.77 316.72 246.738 318.176 243.922 318.176ZM249.059 318V317.584L253.251 313.152C254.355 311.984 255.059 310.976 255.059 309.936C255.059 308.992 254.531 308.384 253.539 308.384C252.531 308.384 251.891 308.976 251.715 310.48H249.363C249.491 307.84 251.091 306.4 253.651 306.4C256.179 306.4 257.619 307.808 257.619 309.872C257.619 311.392 256.739 312.64 255.411 313.92L253.251 316.032H257.699V318H249.059ZM258.943 318V306.56H263.439C265.935 306.56 267.231 307.584 267.231 309.536V309.6C267.231 310.8 266.655 311.68 265.375 312.048C266.863 312.352 267.663 313.2 267.663 314.736V314.8C267.663 316.896 266.287 318 263.647 318H258.943ZM261.471 316.208H263.247C264.527 316.208 265.103 315.632 265.103 314.592V314.528C265.103 313.472 264.527 312.928 263.119 312.928H261.471V316.208ZM261.471 311.264H263.023C264.271 311.264 264.767 310.816 264.767 309.792V309.728C264.767 308.768 264.223 308.336 263.007 308.336H261.471V311.264ZM273.704 318L276.568 313.728L273.896 309.632H276.552L278.12 312.144L279.656 309.632H282.056L279.384 313.552L282.328 318H279.656L277.896 315.184L276.088 318H273.704ZM289.025 318V306.56H296.369V308.592H291.617V311.616H295.377V313.568H291.617V318H289.025ZM301.351 318.176C298.823 318.176 296.871 317.008 296.871 314.768C296.871 313.376 297.671 312.368 298.983 311.904C297.943 311.472 297.319 310.672 297.319 309.52C297.319 307.536 299.223 306.4 301.367 306.4C303.559 306.4 305.383 307.552 305.383 309.504C305.383 310.656 304.727 311.44 303.719 311.888C305.063 312.352 305.815 313.344 305.815 314.704C305.815 316.944 303.895 318.176 301.351 318.176ZM301.351 316.288C302.439 316.288 303.255 315.648 303.255 314.512C303.255 313.392 302.439 312.768 301.367 312.768C300.311 312.768 299.447 313.392 299.447 314.528C299.447 315.664 300.295 316.288 301.351 316.288ZM301.383 311.184C302.311 311.184 302.983 310.624 302.983 309.68C302.983 308.8 302.279 308.208 301.367 308.208C300.455 308.208 299.735 308.768 299.735 309.696C299.735 310.624 300.487 311.184 301.383 311.184ZM309.634 315.984H310.69C312.994 315.984 314.082 314.688 314.082 312.32V312.192C314.082 309.84 313.074 308.576 310.658 308.576H309.634V315.984ZM307.042 318V306.56H310.786C314.802 306.56 316.786 308.736 316.786 312.16V312.288C316.786 315.712 314.786 318 310.77 318H307.042ZM321.899 318.176C319.371 318.176 317.419 317.008 317.419 314.768C317.419 313.376 318.219 312.368 319.531 311.904C318.491 311.472 317.867 310.672 317.867 309.52C317.867 307.536 319.771 306.4 321.915 306.4C324.107 306.4 325.931 307.552 325.931 309.504C325.931 310.656 325.275 311.44 324.267 311.888C325.611 312.352 326.363 313.344 326.363 314.704C326.363 316.944 324.443 318.176 321.899 318.176ZM321.899 316.288C322.987 316.288 323.803 315.648 323.803 314.512C323.803 313.392 322.987 312.768 321.915 312.768C320.859 312.768 319.995 313.392 319.995 314.528C319.995 315.664 320.843 316.288 321.899 316.288ZM321.931 311.184C322.859 311.184 323.531 310.624 323.531 309.68C323.531 308.8 322.827 308.208 321.915 308.208C321.003 308.208 320.283 308.768 320.283 309.696C320.283 310.624 321.035 311.184 321.931 311.184ZM327.59 318V306.56H335.046V308.576H330.166V311.248H334.07V313.136H330.166V315.984H335.302V318H327.59ZM340.994 316.144C342.61 316.144 343.346 314.912 343.346 312.512V312C343.346 309.696 342.546 308.4 340.962 308.4C339.362 308.4 338.546 309.632 338.546 312V312.544C338.546 314.944 339.394 316.144 340.994 316.144ZM340.93 318.176C337.89 318.176 335.954 316.064 335.954 312.56V312.016C335.954 308.496 338.002 306.4 340.946 306.4C343.89 306.4 345.922 308.416 345.922 311.968V312.496C345.922 316 344.018 318.176 340.93 318.176Z" fill="#862E3D"/>
</g>
<defs>
<filter id="filter0_d_634_23231" x="0" y="0" width="364" height="350" filterUnits="userSpaceOnUse" color-interpolation-filters="sRGB">
<feFlood flood-opacity="0" result="BackgroundImageFix"/>
<feColorMatrix in="SourceAlpha" type="matrix" values="0 0 0 0 0 0 0 0 0 0 0 0 0 0 0 0 0 0 127 0" result="hardAlpha"/>
<feOffset dy="2"/>
<feGaussianBlur stdDeviation="1"/>
<feComposite in2="hardAlpha" operator="out"/>
<feColorMatrix type="matrix" values="0 0 0 0 1 0 0 0 0 1 0 0 0 0 1 0 0 0 0.25 0"/>
<feBlend mode="normal" in2="BackgroundImageFix" result="effect1_dropShadow_634_23231"/>
<feBlend mode="normal" in="SourceGraphic" in2="effect1_dropShadow_634_23231" result="shape"/>
</filter>
<linearGradient id="paint0_linear_634_23231" x1="32.7966" y1="88.2129" x2="307.029" y2="234.028" gradientUnits="userSpaceOnUse">
<stop stop-color="#7A1C2B"/>
<stop offset="1" stop-color="#F8D8E0"/>
</linearGradient>
</defs>
</svg>
