<svg width="364" height="350" viewBox="0 0 364 350" fill="none" xmlns="http://www.w3.org/2000/svg">
<g filter="url(#filter0_d_634_23492)">
<rect width="360" height="346" transform="translate(2)" fill="url(#paint0_linear_634_23492)"/>
<path d="M23.976 45V37.608L18.312 27.84H22.584L26.064 34.416L29.472 27.84H33.24L27.888 37.608V45H23.976ZM37.8834 45.264C34.0914 45.264 31.3314 42.888 31.3314 38.88V38.688C31.3314 34.728 34.1394 32.16 37.7874 32.16C41.0274 32.16 43.9074 34.056 43.9074 38.544V39.504H34.8594C34.9554 41.592 36.0834 42.792 37.9794 42.792C39.5874 42.792 40.3794 42.096 40.5954 41.04H43.8834C43.4754 43.752 41.3154 45.264 37.8834 45.264ZM34.9074 37.368H40.5234C40.4034 35.472 39.4434 34.56 37.7874 34.56C36.2274 34.56 35.1714 35.592 34.9074 37.368ZM45.3214 45V26.76H48.7774V45H45.3214ZM51.0879 45V26.76H54.5439V45H51.0879ZM62.6145 42.624C64.5585 42.624 65.6865 41.184 65.6865 38.808V38.64C65.6865 36.24 64.5585 34.8 62.6145 34.8C60.6945 34.8 59.5425 36.192 59.5425 38.592V38.784C59.5425 41.184 60.6465 42.624 62.6145 42.624ZM62.5905 45.264C58.8465 45.264 55.9905 42.768 55.9905 38.856V38.664C55.9905 34.728 58.8465 32.16 62.6145 32.16C66.3825 32.16 69.2145 34.68 69.2145 38.592V38.784C69.2145 42.744 66.3585 45.264 62.5905 45.264ZM72.9 45L69.084 32.448H72.732L74.964 40.896L77.388 32.448H80.244L82.452 40.896L84.828 32.448H88.164L84.204 45H80.796L78.66 37.128L76.356 45H72.9Z" fill="#FFE4A7"/>
<circle cx="182" cy="177" r="101.5" fill="#FFD068" stroke="#FFBC2A"/>
<circle cx="178.05" cy="228" r="28" fill="white" stroke="#FFBC2A" stroke-width="2"/>
<path d="M174.05 181C174.05 196.48 161.721 209 146.55 209C131.378 209 119.05 196.48 119.05 181C119.05 165.52 131.378 153 146.55 153C161.721 153 174.05 165.52 174.05 181Z" fill="white" stroke="#FFBC2A" stroke-width="2"/>
<circle cx="144.05" cy="201" r="20" fill="white" stroke="#FFBC2A" stroke-width="2"/>
<circle cx="144.05" cy="227" r="20" fill="white" stroke="#FFBC2A" stroke-width="2"/>
<path d="M262.05 176C262.05 188.171 252.403 198 240.55 198C228.696 198 219.05 188.171 219.05 176C219.05 163.829 228.696 154 240.55 154C252.403 154 262.05 163.829 262.05 176Z" fill="white" stroke="#FFBC2A" stroke-width="2"/>
<circle cx="216.55" cy="197.5" r="31.5" fill="white" stroke="#FFBC2A" stroke-width="2"/>
<circle cx="174.55" cy="193.5" r="27.5" fill="white" stroke="#FFBC2A" stroke-width="2"/>
<circle cx="154.55" cy="141.5" r="27.5" fill="white" stroke="#FFBC2A" stroke-width="2"/>
<path d="M206.05 126.5C206.05 141.672 193.53 154 178.05 154C162.569 154 150.05 141.672 150.05 126.5C150.05 111.328 162.569 99 178.05 99C193.53 99 206.05 111.328 206.05 126.5Z" fill="white" stroke="#FFBC2A" stroke-width="2"/>
<path d="M248.05 144C248.05 159.48 235.721 172 220.55 172C205.378 172 193.05 159.48 193.05 144C193.05 128.52 205.378 116 220.55 116C235.721 116 248.05 128.52 248.05 144Z" fill="white" stroke="#FFBC2A" stroke-width="2"/>
<path d="M219.05 156.5C219.05 168.907 208.772 179 196.05 179C183.327 179 173.05 168.907 173.05 156.5C173.05 144.093 183.327 134 196.05 134C208.772 134 219.05 144.093 219.05 156.5Z" fill="white" stroke="#FFBC2A" stroke-width="2"/>
<circle cx="207.05" cy="128" r="23" fill="white" stroke="#FFBC2A" stroke-width="2"/>
<circle cx="131.05" cy="150" r="23" fill="white" stroke="#FFBC2A" stroke-width="2"/>
<path d="M191.05 136C191.05 154.212 176.065 169 157.55 169C139.034 169 124.05 154.212 124.05 136C124.05 117.788 139.034 103 157.55 103C176.065 103 191.05 117.788 191.05 136Z" fill="white" stroke="#FFBC2A" stroke-width="2"/>
<circle cx="130.55" cy="177.5" r="27.5" fill="white" stroke="#FFBC2A" stroke-width="2"/>
<circle cx="206.05" cy="224" r="28" fill="white" stroke="#FFBC2A" stroke-width="2"/>
<path d="M219.191 318V306.56H226.535V308.592H221.783V311.616H225.543V313.568H221.783V318H219.191ZM227.629 318V306.56H234.973V308.592H230.221V311.616H233.981V313.568H230.221V318H227.629ZM236.067 318V306.56H240.563C243.059 306.56 244.355 307.584 244.355 309.536V309.6C244.355 310.8 243.779 311.68 242.499 312.048C243.987 312.352 244.787 313.2 244.787 314.736V314.8C244.787 316.896 243.411 318 240.771 318H236.067ZM238.595 316.208H240.371C241.651 316.208 242.227 315.632 242.227 314.592V314.528C242.227 313.472 241.651 312.928 240.243 312.928H238.595V316.208ZM238.595 311.264H240.147C241.395 311.264 241.891 310.816 241.891 309.792V309.728C241.891 308.768 241.347 308.336 240.131 308.336H238.595V311.264ZM247.574 318V309.12L245.254 310.64V308.432L247.894 306.56H250.166V318H247.574ZM256.753 316.144C258.369 316.144 259.105 314.912 259.105 312.512V312C259.105 309.696 258.305 308.4 256.721 308.4C255.121 308.4 254.305 309.632 254.305 312V312.544C254.305 314.944 255.153 316.144 256.753 316.144ZM256.689 318.176C253.649 318.176 251.713 316.064 251.713 312.56V312.016C251.713 308.496 253.761 306.4 256.705 306.4C259.649 306.4 261.681 308.416 261.681 311.968V312.496C261.681 316 259.777 318.176 256.689 318.176ZM263.258 318L266.746 308.656H261.706V306.56H269.994V306.848L265.898 318H263.258ZM275.642 318L278.506 313.728L275.834 309.632H278.49L280.058 312.144L281.594 309.632H283.994L281.322 313.552L284.266 318H281.594L279.834 315.184L278.026 318H275.642ZM290.963 318V306.56H298.307V308.592H293.555V311.616H297.315V313.568H293.555V318H290.963ZM299.401 318V306.56H306.745V308.592H301.993V311.616H305.753V313.568H301.993V318H299.401ZM307.84 318V306.56H315.184V308.592H310.432V311.616H314.192V313.568H310.432V318H307.84ZM320.054 318.176C317.142 318.176 315.654 316.688 315.558 314.368H317.894C317.99 315.472 318.582 316.272 319.958 316.272C321.254 316.272 321.862 315.648 321.862 314.624C321.862 313.536 321.254 312.976 320.022 312.976H319.126V311.248H319.958C321.158 311.248 321.702 310.704 321.702 309.728C321.702 308.912 321.174 308.304 320.118 308.304C319.03 308.304 318.358 308.96 318.23 310.032H315.942C316.07 307.936 317.558 306.4 320.166 306.4C322.678 306.4 324.15 307.712 324.15 309.504C324.15 310.784 323.398 311.584 322.262 311.984C323.59 312.272 324.486 313.216 324.486 314.672C324.486 316.816 322.838 318.176 320.054 318.176ZM328.386 315.984H329.442C331.746 315.984 332.834 314.688 332.834 312.32V312.192C332.834 309.84 331.826 308.576 329.41 308.576H328.386V315.984ZM325.794 318V306.56H329.538C333.554 306.56 335.538 308.736 335.538 312.16V312.288C335.538 315.712 333.538 318 329.522 318H325.794ZM340.955 318.176C337.499 318.176 336.251 315.84 336.251 312.72V312.432C336.251 308.56 338.347 306.4 341.147 306.4C343.419 306.4 344.859 307.472 345.115 309.568H342.715C342.555 308.816 342.171 308.352 341.179 308.352C339.755 308.352 338.875 309.6 338.811 311.952C339.339 311.104 340.203 310.528 341.579 310.528C343.739 310.528 345.355 311.936 345.355 314.24C345.355 316.592 343.675 318.176 340.955 318.176ZM340.923 316.304C342.059 316.304 342.811 315.472 342.811 314.272C342.811 313.072 342.091 312.24 340.923 312.24C339.771 312.24 338.971 313.056 338.971 314.192C338.971 315.504 339.771 316.304 340.923 316.304Z" fill="#FFB515"/>
</g>
<defs>
<filter id="filter0_d_634_23492" x="0" y="0" width="364" height="350" filterUnits="userSpaceOnUse" color-interpolation-filters="sRGB">
<feFlood flood-opacity="0" result="BackgroundImageFix"/>
<feColorMatrix in="SourceAlpha" type="matrix" values="0 0 0 0 0 0 0 0 0 0 0 0 0 0 0 0 0 0 127 0" result="hardAlpha"/>
<feOffset dy="2"/>
<feGaussianBlur stdDeviation="1"/>
<feComposite in2="hardAlpha" operator="out"/>
<feColorMatrix type="matrix" values="0 0 0 0 1 0 0 0 0 1 0 0 0 0 1 0 0 0 0.25 0"/>
<feBlend mode="normal" in2="BackgroundImageFix" result="effect1_dropShadow_634_23492"/>
<feBlend mode="normal" in="SourceGraphic" in2="effect1_dropShadow_634_23492" result="shape"/>
</filter>
<linearGradient id="paint0_linear_634_23492" x1="32.7966" y1="88.2129" x2="307.029" y2="234.028" gradientUnits="userSpaceOnUse">
<stop stop-color="#FFB107"/>
<stop offset="1" stop-color="#FFF3D6"/>
</linearGradient>
</defs>
</svg>
