<svg width="364" height="350" viewBox="0 0 364 350" fill="none" xmlns="http://www.w3.org/2000/svg">
<g filter="url(#filter0_d_634_23321)">
<rect width="360" height="346" transform="translate(2)" fill="url(#paint0_linear_634_23321)"/>
<path d="M19.848 45V27.84H26.592C30.336 27.84 32.28 29.376 32.28 32.304V32.4C32.28 34.2 31.416 35.52 29.496 36.072C31.728 36.528 32.928 37.8 32.928 40.104V40.2C32.928 43.344 30.864 45 26.904 45H19.848ZM23.64 42.312H26.304C28.224 42.312 29.088 41.448 29.088 39.888V39.792C29.088 38.208 28.224 37.392 26.112 37.392H23.64V42.312ZM23.64 34.896H25.968C27.84 34.896 28.584 34.224 28.584 32.688V32.592C28.584 31.152 27.768 30.504 25.944 30.504H23.64V34.896ZM34.4923 45V26.76H37.9483V45H34.4923ZM44.3389 45.264C41.8909 45.264 40.0669 43.824 40.0669 40.536V32.448H43.5229V40.056C43.5229 41.76 44.2189 42.576 45.7069 42.576C47.1709 42.576 48.3229 41.664 48.3229 39.816V32.448H51.7789V45H48.3229V43.032C47.6749 44.304 46.4029 45.264 44.3389 45.264ZM59.6822 45.264C55.8902 45.264 53.1302 42.888 53.1302 38.88V38.688C53.1302 34.728 55.9382 32.16 59.5862 32.16C62.8262 32.16 65.7062 34.056 65.7062 38.544V39.504H56.6582C56.7542 41.592 57.8822 42.792 59.7782 42.792C61.3862 42.792 62.1782 42.096 62.3942 41.04H65.6822C65.2742 43.752 63.1142 45.264 59.6822 45.264ZM56.7062 37.368H62.3222C62.2022 35.472 61.2422 34.56 59.5862 34.56C58.0262 34.56 56.9702 35.592 56.7062 37.368Z" fill="#95C9E3"/>
<circle cx="182" cy="177" r="101.5" fill="#3492C3" stroke="#449BC9"/>
<circle cx="178.05" cy="228" r="28" fill="white" stroke="#449BC9" stroke-width="2"/>
<path d="M174.05 181C174.05 196.48 161.721 209 146.55 209C131.378 209 119.05 196.48 119.05 181C119.05 165.52 131.378 153 146.55 153C161.721 153 174.05 165.52 174.05 181Z" fill="white" stroke="#449BC9" stroke-width="2"/>
<circle cx="144.05" cy="201" r="20" fill="white" stroke="#449BC9" stroke-width="2"/>
<circle cx="144.05" cy="227" r="20" fill="white" stroke="#449BC9" stroke-width="2"/>
<path d="M262.05 176C262.05 188.171 252.403 198 240.55 198C228.696 198 219.05 188.171 219.05 176C219.05 163.829 228.696 154 240.55 154C252.403 154 262.05 163.829 262.05 176Z" fill="white" stroke="#449BC9" stroke-width="2"/>
<circle cx="216.55" cy="197.5" r="31.5" fill="white" stroke="#449BC9" stroke-width="2"/>
<circle cx="174.55" cy="193.5" r="27.5" fill="white" stroke="#449BC9" stroke-width="2"/>
<circle cx="154.55" cy="141.5" r="27.5" fill="white" stroke="#449BC9" stroke-width="2"/>
<path d="M206.05 126.5C206.05 141.672 193.53 154 178.05 154C162.569 154 150.05 141.672 150.05 126.5C150.05 111.328 162.569 99 178.05 99C193.53 99 206.05 111.328 206.05 126.5Z" fill="white" stroke="#449BC9" stroke-width="2"/>
<path d="M248.05 144C248.05 159.48 235.721 172 220.55 172C205.378 172 193.05 159.48 193.05 144C193.05 128.52 205.378 116 220.55 116C235.721 116 248.05 128.52 248.05 144Z" fill="white" stroke="#449BC9" stroke-width="2"/>
<path d="M219.05 156.5C219.05 168.907 208.772 179 196.05 179C183.327 179 173.05 168.907 173.05 156.5C173.05 144.093 183.327 134 196.05 134C208.772 134 219.05 144.093 219.05 156.5Z" fill="white" stroke="#449BC9" stroke-width="2"/>
<circle cx="207.05" cy="128" r="23" fill="white" stroke="#449BC9" stroke-width="2"/>
<circle cx="131.05" cy="150" r="23" fill="white" stroke="#449BC9" stroke-width="2"/>
<path d="M191.05 136C191.05 154.212 176.065 169 157.55 169C139.034 169 124.05 154.212 124.05 136C124.05 117.788 139.034 103 157.55 103C176.065 103 191.05 117.788 191.05 136Z" fill="white" stroke="#449BC9" stroke-width="2"/>
<circle cx="130.55" cy="177.5" r="27.5" fill="white" stroke="#449BC9" stroke-width="2"/>
<circle cx="206.05" cy="224" r="28" fill="white" stroke="#449BC9" stroke-width="2"/>
<path d="M213.359 316.144C214.975 316.144 215.711 314.912 215.711 312.512V312C215.711 309.696 214.911 308.4 213.327 308.4C211.727 308.4 210.911 309.632 210.911 312V312.544C210.911 314.944 211.759 316.144 213.359 316.144ZM213.295 318.176C210.255 318.176 208.319 316.064 208.319 312.56V312.016C208.319 308.496 210.367 306.4 213.311 306.4C216.255 306.4 218.287 308.416 218.287 311.968V312.496C218.287 316 216.383 318.176 213.295 318.176ZM224.126 316.144C225.742 316.144 226.478 314.912 226.478 312.512V312C226.478 309.696 225.678 308.4 224.094 308.4C222.494 308.4 221.678 309.632 221.678 312V312.544C221.678 314.944 222.526 316.144 224.126 316.144ZM224.062 318.176C221.022 318.176 219.086 316.064 219.086 312.56V312.016C219.086 308.496 221.134 306.4 224.078 306.4C227.022 306.4 229.054 308.416 229.054 311.968V312.496C229.054 316 227.15 318.176 224.062 318.176ZM230.632 318L234.12 308.656H229.08V306.56H237.368V306.848L233.272 318H230.632ZM241.947 318.176C238.491 318.176 237.243 315.84 237.243 312.72V312.432C237.243 308.56 239.339 306.4 242.139 306.4C244.411 306.4 245.851 307.472 246.107 309.568H243.707C243.547 308.816 243.163 308.352 242.171 308.352C240.747 308.352 239.867 309.6 239.803 311.952C240.331 311.104 241.195 310.528 242.571 310.528C244.731 310.528 246.347 311.936 246.347 314.24C246.347 316.592 244.667 318.176 241.947 318.176ZM241.915 316.304C243.051 316.304 243.803 315.472 243.803 314.272C243.803 313.072 243.083 312.24 241.915 312.24C240.763 312.24 239.963 313.056 239.963 314.192C239.963 315.504 240.763 316.304 241.915 316.304ZM247.584 318V306.56H252.08C254.576 306.56 255.872 307.584 255.872 309.536V309.6C255.872 310.8 255.296 311.68 254.016 312.048C255.504 312.352 256.304 313.2 256.304 314.736V314.8C256.304 316.896 254.928 318 252.288 318H247.584ZM250.112 316.208H251.888C253.168 316.208 253.744 315.632 253.744 314.592V314.528C253.744 313.472 253.168 312.928 251.76 312.928H250.112V316.208ZM250.112 311.264H251.664C252.912 311.264 253.408 310.816 253.408 309.792V309.728C253.408 308.768 252.864 308.336 251.648 308.336H250.112V311.264ZM261.267 318.176C258.355 318.176 256.867 316.688 256.771 314.368H259.107C259.203 315.472 259.795 316.272 261.171 316.272C262.467 316.272 263.075 315.648 263.075 314.624C263.075 313.536 262.467 312.976 261.235 312.976H260.339V311.248H261.171C262.371 311.248 262.915 310.704 262.915 309.728C262.915 308.912 262.387 308.304 261.331 308.304C260.243 308.304 259.571 308.96 259.443 310.032H257.155C257.283 307.936 258.771 306.4 261.379 306.4C263.891 306.4 265.363 307.712 265.363 309.504C265.363 310.784 264.611 311.584 263.475 311.984C264.803 312.272 265.699 313.216 265.699 314.672C265.699 316.816 264.051 318.176 261.267 318.176ZM271.861 318L274.725 313.728L272.053 309.632H274.709L276.277 312.144L277.813 309.632H280.213L277.541 313.552L280.485 318H277.813L276.053 315.184L274.245 318H271.861ZM287.182 318V306.56H291.678C294.174 306.56 295.47 307.584 295.47 309.536V309.6C295.47 310.8 294.894 311.68 293.614 312.048C295.102 312.352 295.902 313.2 295.902 314.736V314.8C295.902 316.896 294.526 318 291.886 318H287.182ZM289.71 316.208H291.486C292.766 316.208 293.342 315.632 293.342 314.592V314.528C293.342 313.472 292.766 312.928 291.358 312.928H289.71V316.208ZM289.71 311.264H291.262C292.51 311.264 293.006 310.816 293.006 309.792V309.728C293.006 308.768 292.462 308.336 291.246 308.336H289.71V311.264ZM296.049 318V317.584L300.241 313.152C301.345 311.984 302.049 310.976 302.049 309.936C302.049 308.992 301.521 308.384 300.529 308.384C299.521 308.384 298.881 308.976 298.705 310.48H296.353C296.481 307.84 298.081 306.4 300.641 306.4C303.169 306.4 304.609 307.808 304.609 309.872C304.609 311.392 303.729 312.64 302.401 313.92L300.241 316.032H304.689V318H296.049ZM308.525 315.984H309.581C311.885 315.984 312.973 314.688 312.973 312.32V312.192C312.973 309.84 311.965 308.576 309.549 308.576H308.525V315.984ZM305.933 318V306.56H309.677C313.693 306.56 315.677 308.736 315.677 312.16V312.288C315.677 315.712 313.677 318 309.661 318H305.933ZM320.631 318.16C318.151 318.16 316.679 316.976 316.423 314.912H318.839C318.999 315.696 319.463 316.192 320.551 316.192C322.071 316.192 322.823 314.992 322.871 312.656C322.343 313.488 321.511 314.048 320.135 314.048C317.927 314.048 316.311 312.672 316.311 310.352C316.311 307.984 318.007 306.384 320.743 306.384C323.895 306.384 325.415 308.512 325.415 311.808V312.32C325.415 316.064 323.703 318.16 320.631 318.16ZM320.711 312.32C321.879 312.32 322.663 311.52 322.663 310.4C322.663 309.072 321.879 308.256 320.711 308.256C319.575 308.256 318.823 309.088 318.823 310.288C318.823 311.488 319.559 312.32 320.711 312.32ZM326.747 318V306.56H334.203V308.576H329.323V311.248H333.227V313.136H329.323V315.984H334.459V318H326.747ZM338.215 315.984H339.271C341.575 315.984 342.663 314.688 342.663 312.32V312.192C342.663 309.84 341.655 308.576 339.239 308.576H338.215V315.984ZM335.623 318V306.56H339.367C343.383 306.56 345.367 308.736 345.367 312.16V312.288C345.367 315.712 343.367 318 339.351 318H335.623Z" fill="#0B7CB6"/>
</g>
<defs>
<filter id="filter0_d_634_23321" x="0" y="0" width="364" height="350" filterUnits="userSpaceOnUse" color-interpolation-filters="sRGB">
<feFlood flood-opacity="0" result="BackgroundImageFix"/>
<feColorMatrix in="SourceAlpha" type="matrix" values="0 0 0 0 0 0 0 0 0 0 0 0 0 0 0 0 0 0 127 0" result="hardAlpha"/>
<feOffset dy="2"/>
<feGaussianBlur stdDeviation="1"/>
<feComposite in2="hardAlpha" operator="out"/>
<feColorMatrix type="matrix" values="0 0 0 0 1 0 0 0 0 1 0 0 0 0 1 0 0 0 0.25 0"/>
<feBlend mode="normal" in2="BackgroundImageFix" result="effect1_dropShadow_634_23321"/>
<feBlend mode="normal" in="SourceGraphic" in2="effect1_dropShadow_634_23321" result="shape"/>
</filter>
<linearGradient id="paint0_linear_634_23321" x1="32.7966" y1="88.2129" x2="307.029" y2="234.028" gradientUnits="userSpaceOnUse">
<stop stop-color="#0076B3"/>
<stop offset="1" stop-color="#B2D9ED"/>
</linearGradient>
</defs>
</svg>
